<?xml version="1.0" encoding="utf-8" standalone="yes"?>
<!DOCTYPE svg PUBLIC "-//W3C//DTD SVG 1.1//EN" "http://www.w3.org/Graphics/SVG/1.1/DTD/svg11.dtd">
<svg width="1010" height="548" viewBox="0 0 1010 548" style="fill:none;stroke:none;fill-rule:evenodd;clip-rule:evenodd;stroke-linecap:round;stroke-linejoin:round;stroke-miterlimit:1.5;" version="1.1" xmlns="http://www.w3.org/2000/svg" xmlns:xlink="http://www.w3.org/1999/xlink"><style id="fontImports">@import url("https://fonts.googleapis.com/css2?family=Roboto:wght@400;700&amp;display=block");</style><g id="items" style="isolation: isolate"><g id="blend" style="mix-blend-mode:normal"><g id="g-root-ro_1lz982o1ud0sue-fill" data-item-order="-21168" transform="translate(399, 114)"><g id="ro_1lz982o1ud0sue-fill" stroke="none" fill="#f0f0f0"><g><path d="M 34 10L 154 10C 154 10 178 10 178 34L 178 112C 178 112 178 136 154 136L 34 136C 34 136 10 136 10 112L 10 34C 10 34 10 10 34 10"></path></g></g></g><g id="g-root-ro_1ha2otc1ucscu8-fill" data-item-order="-19440" transform="translate(615, 39)"><g id="ro_1ha2otc1ucscu8-fill" stroke="none" fill="#e9fbf3"><g><path d="M 22 10L 358 10C 358 10 370 10 370 22L 370 52C 370 52 370 64 358 64L 22 64C 22 64 10 64 10 52L 10 22C 10 22 10 10 22 10"></path></g></g></g><g id="g-root-ro_1q7l4bk1ud0tfw-fill" data-item-order="-18792" transform="translate(309, 339)"><g id="ro_1q7l4bk1ud0tfw-fill" stroke="none" fill="#f7e6fe"><g><path d="M 22 10L 346 10C 346 10 358 10 358 22L 358 52C 358 52 358 64 346 64L 22 64C 22 64 10 64 10 52L 10 22C 10 22 10 10 22 10"></path></g></g></g><g id="g-root-ro_hun19c1ucy13i-fill" data-item-order="-18792" transform="translate(615, 189)"><g id="ro_hun19c1ucy13i-fill" stroke="none" fill="#e6f9ff"><g><path d="M 22 10L 346 10C 346 10 358 10 358 22L 358 52C 358 52 358 64 346 64L 22 64C 22 64 10 64 10 52L 10 22C 10 22 10 10 22 10"></path></g></g></g><g id="g-root-ro_1d14en41ud3lzg-fill" data-item-order="-18144" transform="translate(15, 189)"><g id="ro_1d14en41ud3lzg-fill" stroke="none" fill="#fef2e6"><g><path d="M 22 10L 334 10C 334 10 346 10 346 22L 346 52C 346 52 346 64 334 64L 22 64C 22 64 10 64 10 52L 10 22C 10 22 10 10 22 10"></path></g></g></g><g id="g-root-ro_v8lfz41ud28sl-fill" data-item-order="-16848" transform="translate(39, 39)"><g id="ro_v8lfz41ud28sl-fill" stroke="none" fill="#e6efff"><g><path d="M 22 10L 310 10C 310 10 322 10 322 22L 322 52C 322 52 322 64 310 64L 22 64C 22 64 10 64 10 52L 10 22C 10 22 10 10 22 10"></path></g></g></g><g id="g-root-cu_hz0cv41ud3mrs-fill" data-item-order="0" transform="translate(567, 66)"></g><g id="g-root-tx_function_1q9gjkw1ud0sgb-fill" data-item-order="0" transform="translate(135, 255)"><g id="tx_function_1q9gjkw1ud0sgb-fill" stroke="none" fill="#484848"><g><text style="font: 20px Roboto, sans-serif; white-space: pre;" font-size="20px" font-family="Roboto, sans-serif"><tspan x="11.82" y="34" dominant-baseline="ideographic">Functional Studies</tspan></text></g></g></g><g id="g-root-tx_understa_4j6iw01ud0u8a-fill" data-item-order="0" transform="translate(663, 291)"><g id="tx_understa_4j6iw01ud0u8a-fill" stroke="none" fill="#484848"><g><text style="font: 20px Roboto, sans-serif; white-space: pre;" font-size="20px" font-family="Roboto, sans-serif"><tspan x="17.34" y="34" dominant-baseline="ideographic">Understand Biological Roles</tspan></text></g></g></g><g id="g-root-tx_verifyge_1lrrm741ud0u85-fill" data-item-order="0" transform="translate(87, 105)"><g id="tx_verifyge_1lrrm741ud0u85-fill" stroke="none" fill="#484848"><g><text style="font: 20px Roboto, sans-serif; white-space: pre;" font-size="20px" font-family="Roboto, sans-serif"><tspan x="13.52" y="34" dominant-baseline="ideographic">Verify Gene Constraints</tspan></text></g></g></g><g id="g-root-cu_8ctgg1ud3lzg-fill" data-item-order="0" transform="translate(309, 93)"></g><g id="g-root-cu_1hitc0w1ud3kzr-fill" data-item-order="0" transform="translate(309, 93)"></g><g id="g-root-cu_147ctnk1ud3mku-fill" data-item-order="0" transform="translate(639, 243)"></g><g id="g-root-cu_hz0cv41ud3mrv-fill" data-item-order="0" transform="translate(567, 198)"></g><g id="g-root-cu_1hitc0w1ud3kzt-fill" data-item-order="0" transform="translate(639, 93)"></g><g id="g-root-cu_1d2ztwg1ud3ls4-fill" data-item-order="0" transform="translate(639, 93)"></g><g id="g-root-cu_zrjbj41ud3nd5-fill" data-item-order="0" transform="translate(639, 243)"></g><g id="g-root-cu_dj6uqo1ud3nk6-fill" data-item-order="0" transform="translate(351, 198)"></g><g id="g-root-cu_qwisdc1ud3ls0-fill" data-item-order="0" transform="translate(333, 393)"></g><g id="g-root-tx_quickacc_v5h2jk1ud0u87-fill" data-item-order="0" transform="translate(663, 105)"><g id="tx_quickacc_v5h2jk1ud0u87-fill" stroke="none" fill="#484848"><g><text style="font: 20px Roboto, sans-serif; white-space: pre;" font-size="20px" font-family="Roboto, sans-serif"><tspan x="12.88" y="34" dominant-baseline="ideographic">Quick Access to PubMed</tspan></text></g></g></g><g id="g-root-tx_exploreg_18gxkww1ud0sna-fill" data-item-order="0" transform="translate(63, 141)"><g id="tx_exploreg_18gxkww1ud0sna-fill" stroke="none" fill="#484848"><g><text style="font: 20px Roboto, sans-serif; white-space: pre;" font-size="20px" font-family="Roboto, sans-serif"><tspan x="13.33" y="34" dominant-baseline="ideographic">Explore Genetic Variations</tspan></text></g></g></g><g id="g-root-tx_retrieve_detj4w1ud0tfl-fill" data-item-order="0" transform="translate(663, 255)"><g id="tx_retrieve_detj4w1ud0tfl-fill" stroke="none" fill="#484848"><g><text style="font: 20px Roboto, sans-serif; white-space: pre;" font-size="20px" font-family="Roboto, sans-serif"><tspan x="15.36" y="34" dominant-baseline="ideographic">Retrieve Protein Annotations</tspan></text></g></g></g><g id="g-root-tx_diseasem_1cy017k1ud0u18-fill" data-item-order="0" transform="translate(135, 291)"><g id="tx_diseasem_1cy017k1ud0u18-fill" stroke="none" fill="#484848"><g><text style="font: 20px Roboto, sans-serif; white-space: pre;" font-size="20px" font-family="Roboto, sans-serif"><tspan x="14.84" y="34" dominant-baseline="ideographic">Disease Modeling</tspan></text></g></g></g><g id="g-root-tx_relevant_hun19c1ud0snc-fill" data-item-order="0" transform="translate(663, 141)"><g id="tx_relevant_hun19c1ud0snc-fill" stroke="none" fill="#484848"><g><text style="font: 20px Roboto, sans-serif; white-space: pre;" font-size="20px" font-family="Roboto, sans-serif"><tspan x="12.35" y="34" dominant-baseline="ideographic">Relevant to Genetic Research</tspan></text></g></g></g><g id="g-root-cu_zrjbj41ud3nd7-fill" data-item-order="0" transform="translate(309, 243)"></g><g id="g-root-cu_vccahs1ud3kzq-fill" data-item-order="0" transform="translate(309, 243)"></g><g id="g-root-cu_i0vs4g1ud3mkr-fill" data-item-order="0" transform="translate(333, 393)"></g><g id="g-root-cu_zpnw9s1ud3nkd-fill" data-item-order="0" transform="translate(351, 66)"></g><g id="g-root-tx_curatedg_18it0681ud0rnp-fill" data-item-order="0" transform="translate(357, 405)"><g id="tx_curatedg_18it0681ud0rnp-fill" stroke="none" fill="#484848"><g><text style="font: 20px Roboto, sans-serif; white-space: pre;" font-size="20px" font-family="Roboto, sans-serif"><tspan x="17.17" y="34" dominant-baseline="ideographic">Curated Gene-Disease </tspan><tspan x="55.44" y="58" dominant-baseline="ideographic">Relationships</tspan></text></g></g></g><g id="g-root-cu_dj6uqo1ud3nk9-fill" data-item-order="0" transform="translate(483, 240)"></g><g id="g-root-tx_genepane_zn5zxc1ud0sge-fill" data-item-order="0" transform="translate(357, 465)"><g id="tx_genepane_zn5zxc1ud0sge-fill" stroke="none" fill="#484848"><g><text style="font: 20px Roboto, sans-serif; white-space: pre;" font-size="20px" font-family="Roboto, sans-serif"><tspan x="16.5" y="34" dominant-baseline="ideographic">Gene Panels for Diagnostics</tspan></text></g></g></g><g id="g-root-tx_searchfo_9lrmo1ucqz9i-fill" data-item-order="1000000000" transform="translate(663, 54)"><g id="tx_searchfo_9lrmo1ucqz9i-fill" stroke="none" fill="#3bc482"><g><text style="font: 20px Roboto, sans-serif; white-space: pre;" font-size="20px" font-family="Roboto, sans-serif"><tspan x="13.41" y="34" dominant-baseline="ideographic">Search for Scientific Publications</tspan></text></g></g></g><g id="g-root-sear_4ospi81ud0tu5-fill" data-item-order="1000000000" transform="translate(459, 138)"></g><g id="g-root-tx_genecons_1qaphr41ud280b-fill" data-item-order="1000000000" transform="translate(51, 54)"><g id="tx_genecons_1qaphr41ud280b-fill" stroke="none" fill="#4682e3"><g><text style="font: 20px Roboto, sans-serif; white-space: pre;" font-size="20px" font-family="Roboto, sans-serif"><tspan x="11.75" y="34" dominant-baseline="ideographic">Gene Constraint Verification</tspan></text></g></g></g><g id="g-root-tx_mousephe_6he741ud3myq-fill" data-item-order="1000000000" transform="translate(27, 204)"><g id="tx_mousephe_6he741ud3myq-fill" stroke="none" fill="#dd8433"><g><text style="font: 20px Roboto, sans-serif; white-space: pre;" font-size="20px" font-family="Roboto, sans-serif"><tspan x="15.02" y="34" dominant-baseline="ideographic">Mouse Phenotype Verification</tspan></text></g></g></g><g id="g-root-tail_1lwrew01ud3l6r-fill" data-item-order="1000000000" transform="translate(309, 201)"></g><g id="g-root-tx_pubmatch_qvw84g1ud0rgk-fill" data-item-order="1000000000" transform="translate(423, 192)"><g id="tx_pubmatch_qvw84g1ud0rgk-fill" stroke="none" fill="#484848"><g><text style="font: 20px Roboto, sans-serif; white-space: pre;" font-size="20px" font-family="Roboto, sans-serif"><tspan x="15.7" y="34" dominant-baseline="ideographic">PubMatcher</tspan></text></g></g></g><g id="g-root-sear_1lpw6xs1ucsc1z-fill" data-item-order="1000000000" transform="translate(627, 51)"></g><g id="g-root-stra_qqa1i81ucy0at-fill" data-item-order="1000000000" transform="translate(627, 201)"></g><g id="g-root-tx_extracti_v63jmo1ucxzik-fill" data-item-order="1000000000" transform="translate(663, 204)"><g id="tx_extracti_v63jmo1ucxzik-fill" stroke="none" fill="#17b0e3"><g><text style="font: 20px Roboto, sans-serif; white-space: pre;" font-size="20px" font-family="Roboto, sans-serif"><tspan x="17.15" y="34" dominant-baseline="ideographic">Extraction of Protein Functions</tspan></text></g></g></g><g id="g-root-dna_1czvggw1ud26fg-fill" data-item-order="1000000000" transform="translate(309, 51)"></g><g id="g-root-circ_242lc1ud0sub-fill" data-item-order="1000000000" transform="translate(321, 351)"></g><g id="g-root-tx_accessto_dcy3vk1ud0uf6-fill" data-item-order="1000000000" transform="translate(357, 354)"><g id="tx_accessto_dcy3vk1ud0uf6-fill" stroke="none" fill="#b65edf"><g><text style="font: 20px Roboto, sans-serif; white-space: pre;" font-size="20px" font-family="Roboto, sans-serif"><tspan x="12.7" y="34" dominant-baseline="ideographic">Access to GenCC and PanelApp</tspan></text></g></g></g><g id="g-root-ro_1lz982o1ud0sue-stroke" data-item-order="-21168" transform="translate(399, 114)"><g id="ro_1lz982o1ud0sue-stroke" fill="none" stroke-linecap="round" stroke-linejoin="round" stroke-miterlimit="4" stroke="#484848" stroke-width="2"><g><path d="M 34 10L 154 10C 154 10 178 10 178 34L 178 112C 178 112 178 136 154 136L 34 136C 34 136 10 136 10 112L 10 34C 10 34 10 10 34 10"></path></g></g></g><g id="g-root-ro_1ha2otc1ucscu8-stroke" data-item-order="-19440" transform="translate(615, 39)"><g id="ro_1ha2otc1ucscu8-stroke" fill="none" stroke-linecap="round" stroke-linejoin="round" stroke-miterlimit="4" stroke="#3bc482" stroke-width="2"><g><path d="M 22 10L 358 10C 358 10 370 10 370 22L 370 52C 370 52 370 64 358 64L 22 64C 22 64 10 64 10 52L 10 22C 10 22 10 10 22 10"></path></g></g></g><g id="g-root-ro_1q7l4bk1ud0tfw-stroke" data-item-order="-18792" transform="translate(309, 339)"><g id="ro_1q7l4bk1ud0tfw-stroke" fill="none" stroke-linecap="round" stroke-linejoin="round" stroke-miterlimit="4" stroke="#b65edf" stroke-width="2"><g><path d="M 22 10L 346 10C 346 10 358 10 358 22L 358 52C 358 52 358 64 346 64L 22 64C 22 64 10 64 10 52L 10 22C 10 22 10 10 22 10"></path></g></g></g><g id="g-root-ro_hun19c1ucy13i-stroke" data-item-order="-18792" transform="translate(615, 189)"><g id="ro_hun19c1ucy13i-stroke" fill="none" stroke-linecap="round" stroke-linejoin="round" stroke-miterlimit="4" stroke="#17b0e3" stroke-width="2"><g><path d="M 22 10L 346 10C 346 10 358 10 358 22L 358 52C 358 52 358 64 346 64L 22 64C 22 64 10 64 10 52L 10 22C 10 22 10 10 22 10"></path></g></g></g><g id="g-root-ro_1d14en41ud3lzg-stroke" data-item-order="-18144" transform="translate(15, 189)"><g id="ro_1d14en41ud3lzg-stroke" fill="none" stroke-linecap="round" stroke-linejoin="round" stroke-miterlimit="4" stroke="#dd8433" stroke-width="2"><g><path d="M 22 10L 334 10C 334 10 346 10 346 22L 346 52C 346 52 346 64 334 64L 22 64C 22 64 10 64 10 52L 10 22C 10 22 10 10 22 10"></path></g></g></g><g id="g-root-ro_v8lfz41ud28sl-stroke" data-item-order="-16848" transform="translate(39, 39)"><g id="ro_v8lfz41ud28sl-stroke" fill="none" stroke-linecap="round" stroke-linejoin="round" stroke-miterlimit="4" stroke="#4682e3" stroke-width="2"><g><path d="M 22 10L 310 10C 310 10 322 10 322 22L 322 52C 322 52 322 64 310 64L 22 64C 22 64 10 64 10 52L 10 22C 10 22 10 10 22 10"></path></g></g></g><g id="g-root-cu_hz0cv41ud3mrs-stroke" data-item-order="0" transform="translate(567, 66)"><g id="cu_hz0cv41ud3mrs-stroke" fill="none" stroke-linecap="round" stroke-linejoin="round" stroke-miterlimit="4" stroke="#888888" stroke-width="2" stroke-dasharray="5.0, 7.0"><g><path d="M 10 100L 13 100L 13.1 100C 24.642748 100.000004 33.999997 90.642755 33.999998 79.100003L 34 79L 34 30.9C 33.999999 19.357249 43.357248 10.000001 54.899999 10.000002L 55 10L 58 10"></path></g></g></g><g id="g-root-tx_function_1q9gjkw1ud0sgb-stroke" data-item-order="0" transform="translate(135, 255)"></g><g id="g-root-tx_understa_4j6iw01ud0u8a-stroke" data-item-order="0" transform="translate(663, 291)"></g><g id="g-root-tx_verifyge_1lrrm741ud0u85-stroke" data-item-order="0" transform="translate(87, 105)"></g><g id="g-root-cu_8ctgg1ud3lzg-stroke" data-item-order="0" transform="translate(309, 93)"><g id="cu_8ctgg1ud3lzg-stroke" fill="none" stroke-linecap="round" stroke-linejoin="round" stroke-miterlimit="4" stroke="#888888" stroke-width="2" stroke-dasharray="5.0, 7.0"><g><path d="M 28 10L 28 22L 28 34L 19 34L 10 34"></path></g></g></g><g id="g-root-cu_1hitc0w1ud3kzr-stroke" data-item-order="0" transform="translate(309, 93)"><g id="cu_1hitc0w1ud3kzr-stroke" fill="none" stroke-linecap="round" stroke-linejoin="round" stroke-miterlimit="4" stroke="#888888" stroke-width="2" stroke-dasharray="5.0, 7.0"><g><path d="M 28 10L 28 17.5L 28 58C 27.999999 64.627415 22.627416 69.999998 16 69.999998L 15.9 70L 10 70"></path></g></g></g><g id="g-root-cu_147ctnk1ud3mku-stroke" data-item-order="0" transform="translate(639, 243)"><g id="cu_147ctnk1ud3mku-stroke" fill="none" stroke-linecap="round" stroke-linejoin="round" stroke-miterlimit="4" stroke="#888888" stroke-width="2" stroke-dasharray="5.0, 7.0"><g><path d="M 10 10L 10 22L 10 34L 19 34L 28 34"></path></g></g></g><g id="g-root-cu_hz0cv41ud3mrv-stroke" data-item-order="0" transform="translate(567, 198)"><g id="cu_hz0cv41ud3mrv-stroke" fill="none" stroke-linecap="round" stroke-linejoin="round" stroke-miterlimit="4" stroke="#888888" stroke-width="2" stroke-dasharray="5.0, 7.0"><g><path d="M 10 10L 13 10L 13.1 10C 16.63228 9.979927 20.514747 10.763232 24.5 12.300001C 26.884298 13.264007 30.256797 15.642506 34.000001 19.000001C 37.743204 22.357495 41.115704 24.735995 43.500001 25.700001C 47.485253 27.236771 51.36772 28.020075 54.9 28.000003L 55 28L 58 28"></path></g></g></g><g id="g-root-cu_1hitc0w1ud3kzt-stroke" data-item-order="0" transform="translate(639, 93)"><g id="cu_1hitc0w1ud3kzt-stroke" fill="none" stroke-linecap="round" stroke-linejoin="round" stroke-miterlimit="4" stroke="#888888" stroke-width="2" stroke-dasharray="5.0, 7.0"><g><path d="M 10 10L 10 22L 10 34L 19 34L 28 34"></path></g></g></g><g id="g-root-cu_1d2ztwg1ud3ls4-stroke" data-item-order="0" transform="translate(639, 93)"><g id="cu_1d2ztwg1ud3ls4-stroke" fill="none" stroke-linecap="round" stroke-linejoin="round" stroke-miterlimit="4" stroke="#888888" stroke-width="2" stroke-dasharray="5.0, 7.0"><g><path d="M 10 10L 10 17.5L 10 58C 10.000002 64.627417 15.372585 70 22.000002 69.999999L 22.1 70L 28 70"></path></g></g></g><g id="g-root-cu_zrjbj41ud3nd5-stroke" data-item-order="0" transform="translate(639, 243)"><g id="cu_zrjbj41ud3nd5-stroke" fill="none" stroke-linecap="round" stroke-linejoin="round" stroke-miterlimit="4" stroke="#888888" stroke-width="2" stroke-dasharray="5.0, 7.0"><g><path d="M 10 10L 10 17.5L 10 58C 10.000002 64.627417 15.372585 70 22.000002 69.999999L 22.1 70L 28 70"></path></g></g></g><g id="g-root-cu_dj6uqo1ud3nk6-stroke" data-item-order="0" transform="translate(351, 198)"><g id="cu_dj6uqo1ud3nk6-stroke" fill="none" stroke-linecap="round" stroke-linejoin="round" stroke-miterlimit="4" stroke="#888888" stroke-width="2" stroke-dasharray="5.0, 7.0"><g><path d="M 58 10L 55 10L 54.9 10C 51.367721 9.979924 47.485254 10.763229 43.500001 12.299998C 41.115703 13.264006 37.743204 15.642505 34.000001 19C 30.256797 22.357494 26.884298 24.735994 24.5 25.7C 20.514747 27.236768 16.632281 28.020072 13.100001 28L 13 28L 10 28"></path></g></g></g><g id="g-root-cu_qwisdc1ud3ls0-stroke" data-item-order="0" transform="translate(333, 393)"><g id="cu_qwisdc1ud3ls0-stroke" fill="none" stroke-linecap="round" stroke-linejoin="round" stroke-miterlimit="4" stroke="#888888" stroke-width="2" stroke-dasharray="5.0, 7.0"><g><path d="M 10 10L 10 28L 10 46L 19 46L 28 46"></path></g></g></g><g id="g-root-tx_quickacc_v5h2jk1ud0u87-stroke" data-item-order="0" transform="translate(663, 105)"></g><g id="g-root-tx_exploreg_18gxkww1ud0sna-stroke" data-item-order="0" transform="translate(63, 141)"></g><g id="g-root-tx_retrieve_detj4w1ud0tfl-stroke" data-item-order="0" transform="translate(663, 255)"></g><g id="g-root-tx_diseasem_1cy017k1ud0u18-stroke" data-item-order="0" transform="translate(135, 291)"></g><g id="g-root-tx_relevant_hun19c1ud0snc-stroke" data-item-order="0" transform="translate(663, 141)"></g><g id="g-root-cu_zrjbj41ud3nd7-stroke" data-item-order="0" transform="translate(309, 243)"><g id="cu_zrjbj41ud3nd7-stroke" fill="none" stroke-linecap="round" stroke-linejoin="round" stroke-miterlimit="4" stroke="#888888" stroke-width="2" stroke-dasharray="5.0, 7.0"><g><path d="M 28 10L 28 22L 28 34L 19 34L 10 34"></path></g></g></g><g id="g-root-cu_vccahs1ud3kzq-stroke" data-item-order="0" transform="translate(309, 243)"><g id="cu_vccahs1ud3kzq-stroke" fill="none" stroke-linecap="round" stroke-linejoin="round" stroke-miterlimit="4" stroke="#888888" stroke-width="2" stroke-dasharray="5.0, 7.0"><g><path d="M 28 10L 28 17.5L 28 58C 27.999999 64.627415 22.627416 69.999998 16 69.999998L 15.9 70L 10 70"></path></g></g></g><g id="g-root-cu_i0vs4g1ud3mkr-stroke" data-item-order="0" transform="translate(333, 393)"><g id="cu_i0vs4g1ud3mkr-stroke" fill="none" stroke-linecap="round" stroke-linejoin="round" stroke-miterlimit="4" stroke="#888888" stroke-width="2" stroke-dasharray="5.0, 7.0"><g><path d="M 10 10L 10 20.5L 10 82C 10.000001 88.627415 15.372584 93.999998 22.000001 93.999998L 22.1 94L 28 94"></path></g></g></g><g id="g-root-cu_zpnw9s1ud3nkd-stroke" data-item-order="0" transform="translate(351, 66)"><g id="cu_zpnw9s1ud3nkd-stroke" fill="none" stroke-linecap="round" stroke-linejoin="round" stroke-miterlimit="4" stroke="#888888" stroke-width="2" stroke-dasharray="5.0, 7.0"><g><path d="M 58 100L 55 100L 54.9 100C 43.357252 100 34.000003 90.642751 34.000003 79.1L 34 79L 34 30.9C 33.999998 19.357248 24.64275 10 13.1 10L 13 10L 10 10"></path></g></g></g><g id="g-root-tx_curatedg_18it0681ud0rnp-stroke" data-item-order="0" transform="translate(357, 405)"></g><g id="g-root-cu_dj6uqo1ud3nk9-stroke" data-item-order="0" transform="translate(483, 240)"><g id="cu_dj6uqo1ud3nk9-stroke" fill="none" stroke-linecap="round" stroke-linejoin="round" stroke-miterlimit="4" stroke="#888888" stroke-width="2" stroke-dasharray="5.0, 7.0"><g><path d="M 10 10L 10 59.5L 10 109"></path></g></g></g><g id="g-root-tx_genepane_zn5zxc1ud0sge-stroke" data-item-order="0" transform="translate(357, 465)"></g><g id="g-root-tx_searchfo_9lrmo1ucqz9i-stroke" data-item-order="1000000000" transform="translate(663, 54)"></g><g id="g-root-sear_4ospi81ud0tu5-stroke" data-item-order="1000000000" transform="translate(459, 138)"><g id="sear_4ospi81ud0tu5-stroke" fill="none" stroke-linecap="round" stroke-linejoin="round" stroke-miterlimit="4" stroke="#484848" stroke-width="2"><g><path d="M 28.857143 52.857143L 15.142858 52.857143C 13.24931 52.857143 11.714286 51.322121 11.714286 49.428574L 11.714286 15.142858C 11.714286 13.24931 13.24931 11.714286 15.142858 11.714286L 52.857143 11.714286C 54.750694 11.714286 56.285713 13.24931 56.285713 15.142858L 56.285713 32.285713M 11.714286 22L 56.285713 22M 34 42.57143C 34 47.305298 37.837563 51.142857 42.57143 51.142857C 47.305298 51.142857 51.142857 47.305298 51.142857 42.57143C 51.142857 37.837563 47.305298 34 42.57143 34C 37.837563 34 34 37.837563 34 42.57143M 48.640003 48.640003L 56.285713 56.285713"></path></g></g></g><g id="g-root-tx_genecons_1qaphr41ud280b-stroke" data-item-order="1000000000" transform="translate(51, 54)"></g><g id="g-root-tx_mousephe_6he741ud3myq-stroke" data-item-order="1000000000" transform="translate(27, 204)"></g><g id="g-root-tail_1lwrew01ud3l6r-stroke" data-item-order="1000000000" transform="translate(309, 201)"><g id="tail_1lwrew01ud3l6r-stroke" fill="none" stroke-linecap="round" stroke-linejoin="round" stroke-miterlimit="4" stroke="#dd8433" stroke-width="2"><g><path d="M 32.877499 23.75L 26.25 23.75M 38.125 18.5C 38.125 21.399494 35.774494 23.75 32.875 23.75M 38.125 17.5L 38.125 18.502501M 33.75 16.25L 38.125 17.5M 30 12.5C 32.071068 12.5 33.75 14.178932 33.75 16.25M 26.25 16.25C 26.25 14.178932 27.928932 12.5 30 12.5M 27.5 19.045C 26.703594 18.334385 26.248749 17.317352 26.250002 16.25M 24.192501 15.08875C 21.869177 14.693049 19.520815 15.637922 18.118975 17.532455C 16.717134 19.426989 16.500216 21.948999 17.557961 24.055082C 18.615704 26.161165 20.76823 27.493162 23.125 27.5C 24.850889 27.5 26.25 26.100891 26.25 24.375C 26.25 22.649111 24.850889 21.25 23.125 21.25M 31.25 23.75L 31.70125 26.455C 31.801456 27.057749 32.322727 27.499718 32.93375 27.5L 33.75 27.5M 23.11125 27.5L 27.48625 27.5M 33.4375 18.75C 33.264912 18.75 33.125 18.889912 33.125 19.0625M 33.75 19.0625C 33.75 18.889912 33.610088 18.75 33.4375 18.75M 33.4375 19.375C 33.610088 19.375 33.75 19.235088 33.75 19.0625M 33.125 19.0625C 33.125 19.235088 33.264912 19.375 33.4375 19.375M 17 22.5C 14.214128 22.490507 11.934287 24.714743 11.875 27.499998C 11.875 30.261423 14.113576 32.5 16.875 32.5L 28.125 32.5C 29.505713 32.5 30.625 33.619286 30.625 35C 30.625 36.380714 29.505713 37.5 28.125 37.5L 20.625 37.5"></path></g></g></g><g id="g-root-tx_pubmatch_qvw84g1ud0rgk-stroke" data-item-order="1000000000" transform="translate(423, 192)"></g><g id="g-root-sear_1lpw6xs1ucsc1z-stroke" data-item-order="1000000000" transform="translate(627, 51)"><g id="sear_1lpw6xs1ucsc1z-stroke" fill="none" stroke-linecap="round" stroke-linejoin="round" stroke-miterlimit="4" stroke="#3bc482" stroke-width="2"><g><path d="M 25.10125 39.375L 14.375 39.375C 12.994288 39.375 11.875 38.255714 11.875 36.875L 11.875 13.125M 35.625 10.625L 14.375 10.625C 12.994288 10.625 11.875 11.744288 11.875 13.125C 11.875 14.505712 12.994288 15.625 14.375 15.625L 34.375 15.625C 35.065353 15.625 35.625 16.184645 35.625 16.875L 35.625 25.032499M 14.375 13.125L 34.375 13.125M 24.375 31.286249C 24.375 34.412872 26.909628 36.947498 30.036249 36.947498C 33.162872 36.947498 35.697498 34.412872 35.697498 31.286249C 35.697498 28.159628 33.162872 25.625 30.036249 25.625C 26.909628 25.625 24.375 28.159628 24.375 31.286249ZM 38.125 39.375L 34.065002 35.315002"></path></g></g></g><g id="g-root-stra_qqa1i81ucy0at-stroke" data-item-order="1000000000" transform="translate(627, 201)"><g id="stra_qqa1i81ucy0at-stroke" fill="none" stroke-linecap="round" stroke-linejoin="round" stroke-miterlimit="4" stroke="#17b0e3" stroke-width="2"><g><path d="M 10 10M 16.376249 11.0225L 20.178749 13.127501C 21.717499 15.672501 14.20875 27.865 16.375 29.057501L 12.575 26.952499C 10.40625 25.758751 17.50625 13.127501 16.375 11.0225ZM 33.908752 21.084999L 37.709999 23.190001C 39.25 25.73625 31.74 37.927498 33.908752 39.119999L 30.106249 37.014999C 27.938749 35.821251 35.03875 23.190001 33.908752 21.084999ZM 17.362499 23.36375C 19.5625 21.172501 24.24625 15.395 25.137499 16.05125M 16.377501 29.045C 17.06875 29.563749 21.2925 26.549999 23.86125 21.7075M 26.125 28.405001C 28.3225 26.215 33.0075 20.4375 33.900002 21.092499M 25.137499 34.087502C 25.83 34.605 30.053749 31.591251 32.622498 26.75M 10 10M 25.1425 16.053749L 28.94375 18.158751C 30.483749 20.703751 22.975 32.896248 25.1425 34.088749L 21.341249 31.983749C 19.172501 30.790001 26.272499 18.158751 25.1425 16.053749Z"></path></g></g></g><g id="g-root-tx_extracti_v63jmo1ucxzik-stroke" data-item-order="1000000000" transform="translate(663, 204)"></g><g id="g-root-dna_1czvggw1ud26fg-stroke" data-item-order="1000000000" transform="translate(309, 51)"><g id="dna_1czvggw1ud26fg-stroke" fill="none" stroke-linecap="round" stroke-linejoin="round" stroke-miterlimit="4" stroke="#4682e3" stroke-width="2"><g><path d="M 15.5625 21.875L 18.862499 21.875M 23.237499 19.375L 27 19.375M 15.950001 15.625L 19.487499 15.625M 19.487499 39.174999C 15.471788 38.294025 12.610971 34.73621 12.6125 30.625C 12.598625 28.641365 11.960056 26.712536 10.7875 25.112499C 10.603674 24.909626 10.573277 24.610727 10.7125 24.375C 10.849041 24.14649 11.113191 24.026875 11.375 24.075001C 15.624599 24.980854 19.272593 27.684931 21.375 31.487501M 27.25 25.599998C 22.321915 28.311651 19.325085 33.552483 19.487499 39.174999L 19.487499 39.174999C 20.104177 39.304596 20.732363 39.371601 21.362499 39.375C 23.744781 39.375843 26.02442 38.405308 27.675001 36.6875M 27.25 23.200001L 26.775 15.7C 26.581419 12.853286 24.21579 10.643061 21.362499 10.643061C 18.509212 10.643061 16.143583 12.853286 15.950001 15.700001L 15.3375 25.512501M 29.375 39.375C 29.375 39.375 29.375 31.875 34.375 31.875C 39.375 31.875 39.375 39.375 39.375 39.375M 29.4625 38.125L 39.287498 38.125M 30.237501 35L 38.512501 35M 39.375 24.375C 39.375 24.375 39.375 31.875 34.375 31.875C 29.375 31.875 29.375 24.375 29.375 24.375M 39.287498 25.625L 29.4625 25.625M 38.512501 28.75L 30.237501 28.75"></path></g></g></g><g id="g-root-circ_242lc1ud0sub-stroke" data-item-order="1000000000" transform="translate(321, 351)"><g id="circ_242lc1ud0sub-stroke" fill="none" stroke-linecap="round" stroke-linejoin="round" stroke-miterlimit="4" stroke="#b65edf" stroke-width="2"><g><path d="M 10.625 25.001251C 10.625 32.940342 17.060907 39.376251 25 39.376251C 32.939095 39.376251 39.375 32.940342 39.375 25.001251C 39.375 17.062157 32.939095 10.62625 25 10.62625C 17.060907 10.62625 10.625 17.062157 10.625 25.001251ZM 13.125 26.875L 16.092501 26.875C 18.85 26.875 18.61125 24.54125 20.633751 14.835C 20.694107 14.545148 20.949556 14.337413 21.245625 14.337413C 21.541695 14.337413 21.797144 14.545148 21.8575 14.835L 25.685001 33.5C 25.743601 33.786972 25.993629 33.994759 26.286478 33.999859C 26.579329 34.004959 26.836441 33.806007 26.905001 33.521248L 29.54125 22.5375C 29.604387 22.272301 29.832132 22.078617 30.104029 22.058891C 30.375923 22.039164 30.629242 22.197943 30.73 22.45125C 31.658749 24.77375 32.029999 26.877501 34.192501 26.877501L 36.875 26.877501"></path></g></g></g><g id="g-root-tx_accessto_dcy3vk1ud0uf6-stroke" data-item-order="1000000000" transform="translate(357, 354)"></g></g></g></svg>