<?xml version="1.0" standalone="no"?>
<!DOCTYPE svg PUBLIC "-//W3C//DTD SVG 20010904//EN"
 "http://www.w3.org/TR/2001/REC-SVG-20010904/DTD/svg10.dtd">
<svg version="1.0" xmlns="http://www.w3.org/2000/svg"
 width="248.000000pt" height="254.000000pt" viewBox="0 0 248.000000 254.000000"
 preserveAspectRatio="xMidYMid meet">
<metadata>
Created by potrace 1.10, written by Peter Selinger 2001-2011
</metadata>
<g transform="translate(0.000000,254.000000) scale(0.100000,-0.100000)"
fill="#ffffff" stroke="none">
<path d="M1020 2464 c-179 -36 -337 -121 -461 -250 -99 -104 -152 -197 -195
-345 -25 -83 -28 -111 -28 -234 0 -150 12 -211 70 -341 74 -167 235 -334 396
-409 l53 -25 18 21 c23 29 22 33 -17 47 -53 19 -154 88 -219 150 -270 257
-323 631 -135 956 50 86 160 202 241 255 220 143 539 160 778 41 103 -51 136
-76 217 -160 114 -119 188 -276 212 -449 39 -285 -130 -609 -395 -755 -33 -19
-78 -39 -100 -46 -54 -17 -57 -21 -34 -48 19 -24 19 -24 64 -7 l45 18 57 -59
c46 -48 56 -65 54 -89 -5 -67 18 -97 304 -399 77 -82 158 -157 180 -169 125
-65 260 17 259 159 0 34 -7 62 -21 84 -22 34 -276 313 -376 412 -89 88 -127
79 -249 -54 -55 -60 -58 -61 -58 -35 0 21 18 45 80 106 44 44 80 82 80 85 0 3
-5 6 -12 6 -7 0 -31 19 -54 41 l-42 41 57 59 c205 211 279 537 187 824 -63
199 -227 389 -417 485 -127 65 -198 82 -364 85 -82 2 -161 1 -175 -1z m704
-1515 l26 -30 -43 -50 -42 -50 -37 43 c-21 24 -38 45 -38 48 0 6 92 68 102 69
3 1 18 -13 32 -30z m296 -251 c62 -68 125 -135 140 -149 14 -14 46 -47 70 -73
l43 -47 -34 -30 c-19 -16 -51 -38 -71 -49 -46 -25 -64 -53 -44 -70 11 -9 22
-7 48 6 51 26 106 73 114 96 l7 22 18 -23 c65 -80 -43 -212 -140 -172 -28 12
-403 392 -431 436 -13 22 -12 26 5 46 25 28 147 129 155 129 4 0 58 -55 120
-122z"/>
<path d="M1867 723 c-17 -16 -4 -43 37 -77 48 -39 73 -45 83 -20 4 10 -9 31
-38 60 -40 41 -67 53 -82 37z"/>
<path d="M2002 588 c-20 -20 -14 -31 36 -81 34 -33 54 -46 65 -41 29 11 19 38
-31 87 -53 52 -53 52 -70 35z"/>
<path d="M2144 445 c-9 -23 3 -45 26 -45 25 0 37 25 20 45 -16 19 -39 19 -46
0z"/>
<path d="M1025 2341 c-24 -5 -29 -11 -27 -31 1 -13 4 -26 6 -28 3 -2 40 2 83
8 45 7 110 9 153 6 69 -6 76 -5 88 14 11 18 10 21 -13 30 -29 11 -242 12 -290
1z"/>
<path d="M890 2317 c-14 -6 -26 -12 -28 -13 -19 -12 153 -224 181 -224 6 0 21
10 34 21 l22 22 -70 75 c-39 41 -77 88 -85 104 -16 31 -18 32 -54 15z"/>
<path d="M1367 2280 c-20 -26 -105 -103 -189 -171 -267 -214 -313 -260 -372
-377 -35 -69 -34 -77 13 -77 36 -1 41 2 54 35 34 86 185 238 362 366 79 56
166 140 202 192 20 28 34 54 32 56 -2 1 -18 8 -35 14 -30 10 -33 8 -67 -38z"/>
<path d="M765 2238 c-130 -92 -243 -256 -291 -418 -29 -99 -26 -292 5 -385 70
-208 225 -382 407 -456 l57 -23 19 24 20 24 -62 23 c-245 92 -414 338 -414
603 1 195 84 374 245 523 57 53 78 79 73 91 -8 21 -23 20 -59 -6z"/>
<path d="M1507 2253 c-16 -15 -2 -33 77 -96 155 -123 235 -280 252 -492 22
-287 -201 -596 -466 -645 -30 -6 -58 -14 -63 -19 -15 -15 29 -50 55 -44 280
62 498 311 528 602 23 217 -58 439 -213 590 -86 84 -151 124 -170 104z"/>
<path d="M1060 2239 c0 -14 48 -57 72 -65 14 -4 31 3 56 23 19 16 35 32 34 36
-3 13 -162 18 -162 6z"/>
<path d="M749 2073 c-45 -41 -94 -117 -84 -133 15 -24 46 -5 109 65 68 76 78
105 36 105 -11 0 -38 -16 -61 -37z"/>
<path d="M1248 2002 l-28 -27 62 -50 c74 -61 150 -150 183 -215 23 -45 27 -48
60 -47 19 1 35 7 35 13 0 6 -16 43 -35 82 -27 54 -60 95 -136 171 -56 56 -104
101 -107 100 -4 0 -19 -12 -34 -27z"/>
<path d="M1070 1863 c-27 -18 -49 -43 -50 -55 0 -12 308 -10 315 2 3 5 -5 21
-19 35 -22 22 -34 25 -94 25 -38 0 -82 2 -98 6 -19 3 -38 -1 -54 -13z"/>
<path d="M611 1848 c-23 -24 -41 -98 -41 -168 0 -47 2 -50 25 -50 22 0 25 4
25 33 0 18 9 65 20 105 11 39 20 76 20 81 0 19 -31 19 -49 -1z"/>
<path d="M937 1712 c-10 -10 -17 -26 -17 -35 0 -15 23 -17 255 -17 274 0 272
-1 245 51 -10 18 -24 19 -239 19 -208 0 -229 -2 -244 -18z"/>
<path d="M789 1608 c-14 -5 -32 -20 -39 -34 -12 -21 -11 -28 7 -52 43 -59 128
-32 121 39 -4 40 -46 62 -89 47z"/>
<path d="M1492 1600 c-37 -35 -24 -92 23 -104 38 -10 94 27 95 62 0 21 -47 62
-73 62 -13 0 -33 -9 -45 -20z"/>
<path d="M969 1582 c-32 -3 -36 -6 -37 -33 l-1 -29 245 0 244 0 0 30 c0 22 -5
30 -17 31 -86 2 -406 3 -434 1z"/>
<path d="M573 1518 c9 -62 49 -159 72 -174 12 -8 26 -10 34 -5 11 7 9 20 -12
72 -14 35 -30 83 -37 107 -9 36 -15 42 -37 42 -25 0 -25 -2 -20 -42z"/>
<path d="M775 1428 c29 -100 108 -215 218 -317 l58 -54 27 20 c38 28 37 44 -3
72 -77 52 -173 169 -208 253 -19 46 -21 48 -59 48 -36 0 -39 -2 -33 -22z"/>
<path d="M928 1443 c-21 -5 -24 -33 -6 -51 9 -9 79 -12 255 -12 l243 0 11 26
c5 15 8 28 6 30 -5 5 -489 12 -509 7z"/>
<path d="M1470 1388 c-19 -55 -36 -77 -129 -169 -58 -58 -137 -129 -176 -158
-223 -168 -388 -371 -420 -519 -5 -27 -4 -32 12 -32 46 0 60 12 88 77 60 138
136 218 504 528 92 78 167 171 197 243 34 82 32 92 -15 92 -38 0 -38 0 -61
-62z"/>
<path d="M1128 1303 c-105 -3 -118 -6 -118 -21 0 -37 20 -42 162 -42 136 0
138 0 154 25 9 14 14 28 11 31 -9 9 -76 11 -209 7z"/>
<path d="M1222 937 l-21 -23 80 -79 c94 -93 171 -197 195 -265 17 -48 36 -60
89 -60 33 0 -35 155 -108 243 -67 83 -189 207 -203 207 -6 0 -20 -10 -32 -23z"/>
<path d="M1064 795 c-8 -13 -13 -29 -9 -35 8 -12 211 -14 219 -1 3 5 -4 20
-15 35 -19 24 -26 26 -99 26 -73 0 -81 -2 -96 -25z"/>
<path d="M950 675 c-7 -8 -10 -22 -6 -30 4 -13 37 -15 215 -15 130 0 212 4
216 10 3 6 3 19 0 30 -6 19 -15 20 -209 20 -168 0 -206 -3 -216 -15z"/>
<path d="M876 544 c-16 -41 4 -44 284 -44 225 0 270 2 280 15 7 8 10 22 6 30
-5 13 -45 15 -285 15 -248 0 -280 -2 -285 -16z"/>
<path d="M1485 456 c-31 -31 -32 -70 -3 -90 28 -20 58 -20 86 0 42 29 23 91
-35 108 -17 5 -29 1 -48 -18z"/>
<path d="M741 444 c-12 -15 -21 -31 -21 -36 0 -16 49 -58 68 -58 26 0 72 37
72 59 0 60 -81 84 -119 35z"/>
<path d="M908 405 c-3 -13 -3 -27 0 -30 3 -3 117 -5 254 -5 l248 0 0 30 0 30
-249 0 -249 0 -4 -25z"/>
<path d="M740 304 c0 -73 148 -264 205 -264 46 0 40 26 -24 97 -33 37 -71 91
-83 120 -18 40 -28 53 -45 53 -12 0 -28 3 -37 6 -11 4 -16 0 -16 -12z"/>
<path d="M1528 312 c-31 -3 -38 -7 -43 -32 -8 -37 -73 -136 -114 -174 -38 -36
-39 -53 -6 -68 22 -10 30 -8 63 19 53 43 97 104 122 169 28 76 25 90 -22 86z"/>
<path d="M885 272 c-3 -7 0 -22 5 -33 10 -18 24 -19 264 -19 l253 0 12 26 c6
15 10 28 9 30 -2 1 -123 4 -270 6 -215 2 -269 0 -273 -10z"/>
</g>
</svg>
