 <svg  version="1.0" xmlns="http://www.w3.org/2000/svg"  width="300.000000pt" height="339.000000pt" viewBox="0 0 300.000000 339.000000"  preserveAspectRatio="xMidYMid meet">  <g transform="translate(0.000000,339.000000) scale(0.050000,-0.050000)" fill="#ffffff" stroke="none"> <path d="M2392 6400 c-1463 -266 -2102 -1946 -1171 -3082 499 -610 1397 -855 2157 -590 l137 48 98 -99 c53 -54 144 -120 202 -147 121 -55 117 -47 65 -145 -45 -84 -49 -150 -14 -230 34 -78 1091 -1134 1168 -1167 311 -134 669 175 604 522 -24 130 -51 162 -857 997 -314 326 -443 352 -666 136 l-95 -92 -49 50 -49 49 137 120 c176 154 177 156 81 270 l-81 97 53 56 c1166 1241 371 3177 -1322 3218 -165 4 -344 -1 -398 -11z m858 -249 c1046 -311 1519 -1549 954 -2499 -859 -1446 -3145 -882 -3199 788 -29 903 531 1592 1435 1767 152 30 633 -4 810 -56z m1693 -4075 c450 -462 545 -575 512 -608 -7 -7 -38 5 -69 27 -31 22 -74 45 -96 52 -22 7 -184 158 -360 336 -176 177 -348 344 -381 369 -34 26 -73 68 -86 93 -14 25 -61 72 -105 105 l-81 60 51 43 c79 69 99 53 615 -477z"/> <path d="M2422 6082 c-279 -38 51 -88 478 -73 257 9 240 7 240 29 0 48 -473 77 -718 44z"/> <path d="M1941 5903 c-249 -122 -266 -492 -39 -844 90 -139 389 -459 430 -459 100 0 165 86 117 156 l-31 44 229 0 c126 0 246 6 266 13 33 11 34 9 7 -19 -50 -53 -338 -194 -397 -194 -78 0 -422 -265 -578 -445 -294 -339 -396 -763 -214 -891 49 -35 93 -64 97 -64 4 0 11 83 17 185 12 206 118 551 131 425 12 -109 19 -110 688 -110 530 0 619 4 629 30 44 116 116 -158 111 -425 -2 -113 1 -205 7 -205 24 0 180 87 194 108 53 80 -10 491 -104 682 -123 248 -490 584 -614 561 -107 -20 -147 -171 -46 -171 50 0 275 -196 361 -316 l62 -86 -632 3 -632 3 35 60 c82 141 434 410 655 500 571 231 936 662 965 1139 15 250 9 263 -145 325 -159 63 -153 63 -130 1 11 -29 20 -58 20 -65 0 -8 -314 -14 -697 -14 -739 0 -725 -2 -657 85 35 46 5 43 -105 -12z m68 -195 c21 -29 108 -34 704 -42 l680 -9 22 47 c19 38 23 21 24 -107 1 -181 -11 -229 -51 -196 -31 26 -1194 54 -1314 31 -51 -9 -74 -25 -74 -48 -1 -29 -3 -30 -20 -4 -21 33 -28 360 -7 360 7 0 23 -15 36 -32z m1351 -464 c0 -27 -111 -191 -156 -231 -38 -34 -80 -37 -518 -34 l-476 3 -45 54 c-44 52 -125 191 -125 213 0 6 297 11 660 11 363 0 660 -7 660 -16z"/> <path d="M1224 4996 c-34 -34 -30 -107 9 -146 56 -56 187 -4 187 75 0 78 -139 128 -196 71z"/> <path d="M4111 4489 c-40 -41 -39 -90 3 -178 32 -68 66 -94 66 -51 0 11 13 20 29 20 38 0 91 77 91 133 0 86 -128 137 -189 76z"/> <path d="M1900 3400 c-18 -33 -13 -49 28 -90 l50 -50 678 0 c744 0 758 2 741 123 l-7 47 -734 5 c-719 5 -735 5 -756 -35z"/> <path d="M1857 2656 c-460 -330 -737 -893 -678 -1377 43 -351 203 -642 319 -580 67 36 74 111 18 197 -82 125 -151 327 -92 268 18 -18 230 -24 831 -24 l808 0 -14 -45 c-7 -25 -34 -93 -61 -152 -76 -170 -58 -243 57 -243 125 0 264 449 251 808 -20 538 -413 1124 -684 1020 -48 -18 -41 -32 78 -166 139 -156 139 -171 5 -155 -58 7 -306 13 -551 13 l-447 0 44 62 c24 34 129 124 233 201 105 77 187 143 183 147 -4 4 -53 25 -110 47 l-104 41 -86 -62z m384 -617 c445 -8 576 -5 601 15 52 43 68 31 132 -99 69 -140 110 -291 63 -231 -24 31 -98 35 -779 40 -809 6 -818 5 -818 -96 0 -83 41 -88 810 -88 l732 0 47 47 47 47 12 -72 c30 -186 7 -375 -38 -302 -8 13 -296 20 -800 20 l-787 0 -41 -55 -41 -55 -3 110 c-9 289 51 536 173 717 72 106 73 107 97 60 l23 -47 570 -11z"/> <path d="M3344 969 c-120 -84 46 -295 168 -214 74 49 82 133 19 196 -56 56 -123 63 -187 18z m104 -41 c47 -18 42 -108 -6 -108 -42 0 -67 45 -49 90 13 34 13 34 55 18z"/> </g> </svg> 