<svg class="currentColor" height="100%" style="color:currentColor;fill:currentColor" version="1.1" viewbox="0 0 100 100" width="100%" xmlns="http://www.w3.org/2000/svg"><g><path d="m85.91 36.641c-0.30078 1.2734-0.035156 2.6133 0.73438 3.6719 0.84375 1.082 2.9102 1.8867 3.3789 1.6133 0.34766-1.2734 0.074218-2.6289-0.73438-3.668-0.8125-1.0391-2.0625-1.6367-3.3789-1.6172z"></path><path d="m21.945 23.629c-7.3242 7.7383-11.086 18.184-10.375 28.812 0.75781 11.898 6.9844 22.773 16.859 29.453 9.875 6.6797 22.285 8.4102 33.609 4.6836 0.87891-0.28516 1.5664-0.97656 1.8438-1.8555 0.30078-0.89062 0.15234-1.8672-0.39453-2.6289-0.97266-1.3672-1.875-2.7344-2.1172-3.1602v-0.003906c-1.8711-3.2305-3.2031-6.7461-3.9336-10.41-0.49609-2.457-0.73047-4.957-0.70312-7.4648 0.027344-5.832 1.4375-11.578 4.1094-16.766 2.8203-5.4453 7.3867-9.7891 12.969-12.332 2.4805-1.0195 5.0352-1.8477 7.6406-2.4844 0.98828-0.24219 1.7734-0.99219 2.0586-1.9727 0.30078-1.0039 0.054687-2.0977-0.64844-2.875-7.2266-8.0977-19.82-13.125-32.863-13.125-10.633-0.042969-20.805 4.3516-28.055 12.129zm-0.90625 39.652c-0.41406 0.16406-0.875 0.15625-1.2812-0.019531-0.41016-0.17578-0.73047-0.50391-0.89453-0.91797-0.67969-1.7148-1.2148-3.4844-1.6016-5.2891-0.19531-0.90625 0.38281-1.7969 1.2891-1.9922 0.90625-0.19141 1.7969 0.38281 1.9922 1.2891 0.34766 1.625 0.82812 3.2148 1.4414 4.7578 0.33594 0.85938-0.085937 1.832-0.94531 2.1719zm8.5938-35.48c-6.2109 5.7109-9.7539 13.762-9.7656 22.199-0.027344 0.90625-0.76953 1.625-1.6758 1.625s-1.6484-0.71875-1.6758-1.625c0.011719-9.3789 3.9453-18.324 10.848-24.672 0.68359-0.625 1.7422-0.57812 2.3672 0.10156 0.625 0.68359 0.57812 1.7422-0.10156 2.3672z"></path><path d="m76.785 76.785c-1.3672 0-3.2656 1.1328-3.3477 1.6719 0.082031 0.54297 1.9766 1.6758 3.3477 1.6758 1.3672 0 3.2812-1.1406 3.3477-1.6797-0.070312-0.53125-1.9766-1.668-3.3477-1.668z"></path><path d="m80.133 58.371c0 2.2305-3.3477 2.2305-3.3477 0 0-2.2305 3.3477-2.2305 3.3477 0"></path><path d="m50 3.125c-12.434 0-24.355 4.9375-33.145 13.73-8.793 8.7891-13.73 20.711-13.73 33.145s4.9375 24.355 13.73 33.145c8.7891 8.793 20.711 13.73 33.145 13.73s24.355-4.9375 33.145-13.73c8.793-8.7891 13.73-20.711 13.73-33.145-0.015625-12.426-4.957-24.344-13.746-33.129-8.7852-8.7891-20.703-13.73-33.129-13.746zm21.766 83.703h-1.6758c-0.92578 0-1.6758-0.74609-1.6758-1.6719s0.75-1.6719 1.6758-1.6719h1.6758c0.92188 0 1.6719 0.74609 1.6719 1.6719s-0.75 1.6719-1.6719 1.6719zm-5.0234-15.066-1.6758 0.003906c-0.45312 0.011719-0.89062-0.15625-1.2148-0.47266-0.32812-0.31641-0.51172-0.75-0.51172-1.2031s0.18359-0.88672 0.51172-1.2031c0.32422-0.31641 0.76172-0.48438 1.2148-0.47266h1.6758c0.45312-0.011718 0.89062 0.15625 1.2148 0.47266 0.32812 0.31641 0.50781 0.75 0.50781 1.2031s-0.17969 0.88672-0.50781 1.2031c-0.32422 0.31641-0.76172 0.48438-1.2148 0.47266zm10.047 11.719c-2.6641 0-6.6953-2.0039-6.6953-5.0234-0.003906-3.0195 4.0273-5.0195 6.6914-5.0195 2.6641 0 6.6953 2.0039 6.6953 5.0234 0.003906 3.0156-4.0273 5.0234-6.6953 5.0234zm3.3477-11.719-0.003907 0.003906c-5.4141 0-10.301-3.2656-12.375-8.2695-2.0742-5.0039-0.92578-10.766 2.9023-14.598 3.832-3.8281 9.5938-4.9766 14.598-2.9023 5.0039 2.0742 8.2695 6.957 8.2695 12.375-0.011719 7.3906-6 13.383-13.395 13.395zm-6.6992-30.133v-1.6758c0.027344-0.90234 0.76953-1.6211 1.6758-1.6211 0.90234 0 1.6445 0.71875 1.6719 1.6211v1.6758c-0.027344 0.90625-0.76953 1.625-1.6719 1.625-0.90625 0-1.6484-0.71875-1.6758-1.625zm18.492-5.4297c0.83594 1.168 1.3633 2.5234 1.5352 3.9492 0.36719 1.6172-0.16406 3.3047-1.3867 4.4219-0.66797 0.50391-1.4844 0.76563-2.3203 0.74219-2.2422-0.14062-4.3281-1.207-5.7539-2.9453-0.83594-1.1641-1.3633-2.5234-1.5352-3.9453-0.36719-1.6172 0.16406-3.3047 1.3867-4.4219 2.3789-1.8555 6.4375 0.09375 8.0742 2.1992zm-6.5625-13.809c1.4805 1.6445 1.9961 3.9414 1.3594 6.0586-0.60547 2.0742-2.2461 3.6797-4.332 4.2422-2.4688 0.59375-4.8867 1.3711-7.2383 2.332-4.8906 2.2383-8.8906 6.0547-11.355 10.836-2.4219 4.7148-3.6953 9.9297-3.7188 15.227-0.023437 2.2695 0.1875 4.5391 0.63672 6.7656 0.66016 3.3047 1.8594 6.4766 3.5469 9.3906 0.15625 0.25781 0.95312 1.5 1.9531 2.9062 1.1562 1.625 1.4727 3.6992 0.85938 5.5938-0.61719 1.8945-2.0938 3.3828-3.9844 4.0156-4.2188 1.3945-8.6328 2.1016-13.074 2.0977-1.3398 0-2.6875-0.0625-4.043-0.19141-9.8867-0.99609-19.102-5.457-26.008-12.598-6.9102-7.1406-11.07-16.496-11.738-26.41-0.77344-11.555 3.3164-22.902 11.273-31.312 7.9219-8.4023 18.949-13.176 30.496-13.195 14.18 0 27.398 5.3242 35.359 14.242z"></path><path d="m80.133 48.328c-4.0625-0.003906-7.7266 2.4453-9.2812 6.1992-1.5547 3.7539-0.69531 8.0742 2.1797 10.949 2.8711 2.8711 7.1914 3.7305 10.945 2.1758 3.7539-1.5547 6.2031-5.2188 6.2031-9.2812-0.007813-5.5469-4.5-10.039-10.047-10.043zm-1.6758 15.066 0.003907-0.003906c-2.0312 0-3.8633-1.2227-4.6406-3.0977-0.77734-1.8789-0.34766-4.0391 1.0898-5.4727 1.4375-1.4375 3.5977-1.8672 5.4727-1.0898 1.875 0.77734 3.1016 2.6094 3.1016 4.6406-0.003906 2.7734-2.2539 5.0195-5.0234 5.0195z"></path></g></svg>