<svg class="primary" height="100%" style="color:primary;fill:currentColor" version="1.1" viewbox="0 0 100 100" width="100%" xmlns="http://www.w3.org/2000/svg"><path d="m57.48 10.691c0.5625 0.78125 0.64062 1.8164 0.19922 2.6719-0.44141 0.85938-1.3242 1.3984-2.2891 1.3984h-1.3906v7.4688c0 0.52344-0.42578 0.94922-0.94922 0.94922h-0.10156c-1.9453-0.21094-3.9102-0.21094-5.8594 0-0.25781 0.015624-0.51172-0.078126-0.69922-0.25781-0.19141-0.17578-0.29688-0.42188-0.30078-0.68359v-7.4688h-1.3984c-0.96094 0-1.8438-0.53906-2.2812-1.3945-0.44141-0.85156-0.36719-1.8828 0.19141-2.6641l5.3906-7.5195h-0.003907c0.48438-0.67578 1.2617-1.0742 2.0898-1.0742 0.83203 0 1.6094 0.39844 2.0938 1.0742zm9.0703 17.578c0.011719 0.26953 0.14062 0.51953 0.34766 0.69141 1.5117 1.2266 2.8867 2.6172 4.1016 4.1406 0.17188 0.20313 0.42188 0.32813 0.69141 0.34766h0.050782-0.003907c0.25391-0.003907 0.49219-0.10547 0.67188-0.27734l5.2812-5.2812 1 1c0.67969 0.67969 1.6836 0.92188 2.6016 0.625 0.91406-0.29297 1.5898-1.0742 1.7461-2.0273l1.5117-9.1289c0.15625-0.83203-0.10938-1.6914-0.71094-2.2891-0.59766-0.60156-1.457-0.86719-2.2891-0.71094l-9.0508 1.5625c-0.94922 0.15625-1.7305 0.82812-2.0273 1.7461-0.29297 0.91797-0.050781 1.9219 0.62891 2.6016l1 1-5.2812 5.2812c-0.1875 0.19141-0.28516 0.45312-0.26953 0.71875zm-37-9.6016v0.003906c-0.28906-0.91406-1.0586-1.5859-2-1.75l-9.1289-1.5117c-0.83594-0.15625-1.6914 0.10938-2.293 0.70703-0.60156 0.60156-0.86719 1.457-0.70703 2.293l1.5117 9.1289h-0.003906c0.15625 0.94922 0.83203 1.7344 1.75 2.0273 0.91406 0.29297 1.918 0.054688 2.6016-0.625l1-1 5.2812 5.2812-0.003906-0.003906c0.18359 0.17578 0.42188 0.27344 0.67188 0.28125h0.050781c0.28516-0.023438 0.54688-0.16797 0.71875-0.39844 1.2148-1.5117 2.5898-2.8867 4.1016-4.1016 0.20703-0.16797 0.33594-0.41797 0.35156-0.6875s-0.082031-0.53125-0.27344-0.72266l-5.2812-5.2812 1-1c0.69531-0.6875 0.9375-1.7109 0.62109-2.6367zm3.9297 53.059v0.003907c-0.015625-0.28516-0.15625-0.55469-0.37891-0.73047-1.5117-1.2188-2.8828-2.5898-4.1016-4.1016-0.16797-0.20703-0.41797-0.33594-0.6875-0.35156s-0.53125 0.082031-0.72266 0.27344l-5.2812 5.2812-1-1c-0.67969-0.67969-1.6836-0.92187-2.6016-0.62891-0.91406 0.29688-1.5898 1.0781-1.7461 2.0273l-1.5117 9.1289c-0.15625 0.83594 0.10938 1.6914 0.71094 2.293 0.59766 0.59766 1.457 0.86328 2.2891 0.70703l9.1289-1.5117v0.003906c0.95312-0.16016 1.7344-0.83203 2.0273-1.75 0.29688-0.91406 0.054687-1.918-0.625-2.6016l-1-1 5.2812-5.2812c0.16406-0.21484 0.23047-0.48828 0.1875-0.75781zm63.34-23.816l-7.5195-5.3906c-0.78516-0.55469-1.8125-0.63281-2.6719-0.19922-0.85156 0.4375-1.3906 1.3203-1.3906 2.2812v1.3984h-7.4688c-0.25781 0.003906-0.50391 0.10938-0.68359 0.30078-0.17578 0.1875-0.26953 0.44141-0.25781 0.69922 0.21484 1.9492 0.21484 3.9141 0 5.8594-0.011719 0.25781 0.082031 0.51172 0.25781 0.70312 0.17969 0.1875 0.42578 0.29688 0.68359 0.29688h7.4688v1.4102c0.003907 0.96094 0.53906 1.8398 1.3945 2.2812 0.85547 0.44141 1.8828 0.36719 2.668-0.19141l7.5195-5.3906c0.67578-0.48047 1.0742-1.2578 1.0742-2.0898 0-0.82812-0.39844-1.6055-1.0742-2.0898zm-30 24.539l5.2812 5.2812-1 1c-0.67969 0.67969-0.92187 1.6836-0.62891 2.6016 0.29688 0.91797 1.0781 1.5898 2.0273 1.7461l9.1289 1.5117c0.83594 0.15625 1.6914-0.10938 2.293-0.70703 0.59766-0.60156 0.86328-1.457 0.70703-2.293l-1.5508-9.0898c-0.15625-0.94922-0.82812-1.7305-1.7461-2.0273-0.91797-0.29297-1.9219-0.050781-2.6016 0.62891l-1 1-5.2812-5.2812c-0.1875-0.19141-0.44922-0.29297-0.71875-0.28125-0.26953 0.019532-0.51562 0.14453-0.69141 0.35156-1.2266 1.5156-2.6172 2.8906-4.1406 4.1094-0.20703 0.16797-0.33594 0.41797-0.35156 0.6875s0.082031 0.53125 0.27344 0.72266zm-11.43 12.789h-1.3906v-7.4688c-0.003906-0.25781-0.10938-0.50391-0.30078-0.68359-0.1875-0.17578-0.44141-0.26953-0.69922-0.25781-1.9492 0.21484-3.9141 0.21484-5.8594 0-0.25781-0.011719-0.51172 0.082031-0.70312 0.25781-0.1875 0.17969-0.29688 0.42578-0.29688 0.68359v7.4688h-1.5312c-0.96484 0-1.8477 0.53906-2.2891 1.3984-0.44141 0.85547-0.36328 1.8906 0.19922 2.6719l5.3906 7.5195c0.48047 0.67578 1.2617 1.0781 2.0898 1.0781s1.6094-0.40234 2.0898-1.0781l5.3906-7.5195c0.55859-0.78125 0.62891-1.8086 0.19141-2.6641-0.44141-0.85547-1.3203-1.3945-2.2812-1.3945zm-43.199-27.238c0.67969 0 1.332-0.26953 1.8164-0.75391 0.48047-0.48047 0.75391-1.1328 0.75391-1.8164v-1.4297h7.4688c0.25781-0.003906 0.50391-0.10938 0.68359-0.30078 0.17578-0.1875 0.26953-0.44141 0.25781-0.69922-0.21484-1.9492-0.21484-3.9141 0-5.8594 0.011719-0.25781-0.082031-0.51172-0.25781-0.70312-0.17969-0.1875-0.42578-0.29688-0.68359-0.29688h-7.4688v-1.5312c-0.003907-0.96094-0.53906-1.8398-1.3945-2.2812-0.85547-0.4375-1.8828-0.36719-2.668 0.19141l-7.5195 5.3906c-0.67578 0.48047-1.0742 1.2617-1.0742 2.0898s0.39844 1.6094 1.0742 2.0898l7.5195 5.3906c0.42969 0.32422 0.95312 0.50781 1.4922 0.51953zm22.938-14.621c0 2.2891 1.3789 4.3555 3.4961 5.2305 2.1133 0.875 4.5469 0.39062 6.168-1.2266 1.6172-1.6211 2.1016-4.0547 1.2266-6.168-0.875-2.1172-2.9414-3.4961-5.2305-3.4961-1.5 0-2.9414 0.59766-4 1.6602-1.0625 1.0586-1.6602 2.5-1.6602 4zm18.43 0c0 2.2891 1.3789 4.3555 3.4961 5.2305 2.1133 0.875 4.5469 0.39062 6.168-1.2266 1.6172-1.6211 2.1016-4.0547 1.2266-6.168-0.875-2.1172-2.9414-3.4961-5.2305-3.4961-1.5 0-2.9453 0.59375-4.0078 1.6562s-1.6602 2.5039-1.6602 4.0039zm-3.5586 22.293c11.059 0 17-10.602 15.211-11.059-1.7891-0.46484-5.0703 2.5352-15.211 2.5352s-13.359-3-15.211-2.5312c-1.8477 0.47266 4.1523 11.055 15.211 11.055z"></path></svg>