<svg class="currentColor" height="100%" style="color:currentColor;fill:currentColor" version="1.1" viewbox="0 0 100 100" width="100%" xmlns="http://www.w3.org/2000/svg"><g><path d="m21.254 8.7891 5.2031-3.457 4.2852 6.4492-5.2031 3.457z"></path><path d="m11.934 16.914 4.3711-4.4648 5.9922 5.8672-4.3711 4.4648z"></path><path d="m35.734 4.3555 6.2461-0.054688 0.066406 7.2656-6.2461 0.054688z"></path><path d="m40.32 16.633c-5.7773 0-19.109 3.8008-15.578 12.223 3.4844-1.4766 7.1914-1.8828 10.812-1.1836 2.3086-3.7969 4.6445-7.4727 7.5-10.891-0.90234-0.097656-1.8164-0.14844-2.7344-0.14844z"></path><path d="m76.133 33.254 7.4023-7.8164 4.5352 4.2969-7.4023 7.8164z"></path><path d="m69.234 23.555 6.0391-6.8398 4.6836 4.1328-6.0391 6.8398z"></path><path d="m59.293 36.086c1.5938 3.8516 9.7539 12.812 14.398 8 5.3516-5.543-5.4453-15.207-10.266-15.93-2.1719 2.5-3.4531 4.5703-4.1328 7.9297z"></path><path d="m79.48 41.566c0.51953 5.8867-3.5 10.039-9.3438 9.4453-5.793-0.58984-11-4.8477-14.141-9.5352-0.98047 6.1953-1.8047 13.207-5.793 18.312-5.125 6.5625-13.523 6.4375-20.871 4.2656 0 0 2.4102-5.8164 2.625-5.7812 26.312 7.0547 12.324-29.555 25.211-30.891l6.6211-7.6211-8.1797-9.1836-0.039063 0.03125c-6.5977 5.082-10.715 16.07-15.34 23.008-9.6367 14.457-15.227 19.059-15.77 19.488-0.023438-0.003907-0.042969-0.003907-0.050782 0.003906l-3.832-4.9375c0.0625-0.050781 5.7734-4.6016 13.168-16.055-20.691-2.3086-38.652 39.09 11.629 61.676 2.793 1.2539 5.8164 1.9102 8.8789 1.9102 6.0391 0 11.801-2.5352 15.906-6.9805 17.523-18.973 16.652-36.125 9.3203-47.156z"></path></g></svg>