<svg class="currentColor" height="100%" style="color:currentColor;fill:currentColor" version="1.1" viewbox="0 0 100 100" width="100%" xmlns="http://www.w3.org/2000/svg"><path d="m50 8.332c-9.8828-0.058593-19.387 3.8086-26.422 10.754-7.0312 6.9453-11.016 16.402-11.078 26.285 0.011719 11.277 5.1953 21.922 14.062 28.887v8.1523c0.015625 2.4688 1.0117 4.832 2.7695 6.5703 1.7578 1.7344 4.1328 2.7031 6.6055 2.6875h28.125c2.4727 0.015625 4.8477-0.95312 6.6055-2.6875 1.7578-1.7383 2.7539-4.1016 2.7695-6.5703v-8.1523c8.8672-6.9648 14.051-17.609 14.062-28.887-0.0625-9.8828-4.0469-19.34-11.078-26.285-7.0352-6.9453-16.539-10.812-26.422-10.754zm-4.168 75h-8.332v-8.332c0-2.3008 1.8672-4.168 4.168-4.168s4.1641 1.8672 4.1641 4.168zm-8.332-20.832c-3.3711 0-6.4102-2.0312-7.6992-5.1445-1.2891-3.1133-0.57812-6.6992 1.8086-9.082 2.3828-2.3828 5.9648-3.0938 9.0781-1.8047 3.1172 1.2891 5.1445 4.3281 5.1445 7.6992 0 2.207-0.875 4.3281-2.4414 5.8906-1.5625 1.5625-3.6797 2.4414-5.8906 2.4414zm25 20.832h-8.332v-8.332c0-2.3008 1.8633-4.168 4.1641-4.168s4.168 1.8672 4.168 4.168zm0-20.832c-3.3711 0-6.4102-2.0312-7.6992-5.1445-1.2891-3.1133-0.57812-6.6992 1.8086-9.082 2.3828-2.3828 5.9648-3.0938 9.0781-1.8047 3.1172 1.2891 5.1445 4.3281 5.1445 7.6992 0 2.207-0.875 4.3281-2.4414 5.8906-1.5625 1.5625-3.6797 2.4414-5.8906 2.4414z"></path></svg>