<svg class="currentColor" height="100%" style="color:currentColor;fill:currentColor" version="1.1" viewbox="0 0 100 100" width="100%" xmlns="http://www.w3.org/2000/svg"><path d="m19.039 69.312c1.0156-1.4961 2.7617-2.3242 4.5625-2.1602 1.8008 0.16797 3.3711 1.3008 4.0938 2.957 2.2148 5.0938 5.8945 9.4102 10.574 12.402 4.6758 2.9922 10.141 4.5234 15.691 4.3984 1.4727-0.03125 2.9492-0.03125 4.4258 0 11.988 0.26953 23.348-5.3438 30.414-15.027 7.0703-9.6875 8.9531-22.219 5.0391-33.551-2.1797-4.1367-6.0156-7.1484-10.547-8.2969-4.5312-1.1445-9.3359-0.31641-13.219 2.2812-0.89844 0.60156-2.0859 0.55078-2.9297-0.125-3.5742-2.8555-6.1719-6.7539-7.4375-11.152-1.2656-4.3945-1.1328-9.0781 0.37891-13.398h-9.2969c-2.957 9.5898-0.57422 20.027 6.2539 27.387 3.543 3.832 3.5117 9.7578-0.078125 13.551-3.8281 4.0508-8.6914 6.9766-14.066 8.4531-5.3711 1.4766-11.047 1.4492-16.406-0.082031-5.0508-1.4414-10.477-0.51953-14.766 2.5078-4.293 3.0273-6.9805 7.832-7.3164 13.07-0.42578 6.6094-0.31641 13.242 0.32031 19.832h10.277c-2.0117-7.9023-0.55078-16.289 4.0117-23.047z"></path></svg>