<svg class="currentColor" height="100%" style="color:currentColor;fill:currentColor" version="1.1" viewbox="0 0 100 100" width="100%" xmlns="http://www.w3.org/2000/svg"><g><path d="m50 2.082c-12.707 0-24.895 5.0508-33.883 14.035-8.9844 8.9883-14.035 21.176-14.035 33.883s5.0508 24.895 14.035 33.883c8.9883 8.9844 21.176 14.035 33.883 14.035s24.895-5.0508 33.883-14.035c8.9844-8.9883 14.035-21.176 14.035-33.883s-5.0508-24.895-14.035-33.883c-8.9883-8.9844-21.176-14.035-33.883-14.035zm0 91.668c-11.602 0-22.73-4.6094-30.938-12.812-8.2031-8.207-12.812-19.336-12.812-30.938s4.6094-22.73 12.812-30.938c8.207-8.2031 19.336-12.812 30.938-12.812s22.73 4.6094 30.938 12.812c8.2031 8.207 12.812 19.336 12.812 30.938s-4.6094 22.73-12.812 30.938c-8.207 8.2031-19.336 12.812-30.938 12.812z"></path><path d="m50 10.418c-11.168 0-20.832 5.457-20.395 5.8125 3.6914 3.6914 3.6914 9.6797 0 13.375l-6.25 6.25c-1.4844 1.4844-1.4844 3.8906 0 5.375s3.8906 1.4844 5.375 0c1.9727-1.957 5.1523-1.957 7.125 0 4.168 4.168 1.4805 2.6875 5.918 1.2695h-0.003907c-0.85547-5.4375 0.72266-10.977 4.3125-15.148 3.5898-4.1719 8.832-6.5547 14.336-6.5195 19.75 0 32.98 32.957 13.25 52.645v0.003907c-6.25 6.2461-14.727 9.7539-23.562 9.7539-8.8398 0-17.312-3.5078-23.562-9.7539-2.5039-2.5352-3.9922-5.8984-4.1836-9.457-0.19531-3.5586 0.92188-7.0625 3.1367-9.8516 2.2109-2.793 5.3711-4.6758 8.8789-5.2969 0.33984-0.69922 0.75391-1.3633 1.2305-1.9805-2.375-2.375-3.125-3.5625-3.918-2.707-3.1172 3.1172-8.1719 3.1172-11.293 0-3.1172-3.1172-3.1172-8.1719 0-11.293l6.25-6.25c0.99219-0.98828 1.5469-2.3281 1.5469-3.7266 0-1.3984-0.55469-2.7422-1.5469-3.7305-0.21484-0.21875-0.375-0.48047-0.47656-0.76953-30.188 22.75-14.125 71.164 23.832 71.164 14.141 0 27.211-7.543 34.281-19.789 7.0703-12.25 7.0703-27.336 0-39.586-7.0703-12.246-20.141-19.789-34.281-19.789z"></path><path d="m37.5 52.875c-2.9844-0.19141-5.9062 0.91016-8.0195 3.0195-13.75 13.75 20.543 35.418 41.25 14.73 21.832-21.938-3.168-58.812-20.73-41.25-2.1719 2.1758-3.5977 4.9766-4.082 8.0117-0.48047 3.0352 0.003906 6.1445 1.3945 8.8828-2.1797-0.43359-4.4375 0.019531-6.2812 1.2617-1.8438 1.2383-3.1133 3.1641-3.5312 5.3438zm24.395-17.605c1.6289-1.625 4.2695-1.625 5.8984 0 1.625 1.6289 1.625 4.2695 0 5.8984-1.6289 1.6562-4.293 1.6797-5.9492 0.050781s-1.6797-4.293-0.050781-5.9492z"></path></g></svg>