<svg class="currentColor" height="100%" style="color:currentColor;fill:currentColor" version="1.1" viewbox="0 0 100 100" width="100%" xmlns="http://www.w3.org/2000/svg"><g><path d="m75 34.203c-1.0586 0-1.9219 0.84766-1.9219 1.9219v32.789c-4.75-2.9023-14.059-6.7109-23.73 0.11719-0.11719 0.078125-0.21484 0.15234-0.30859 0.26953l-0.30859 0.32812c-10.539 7.2852-20.402-0.65625-21.809-1.8672v-31.633c0-1.0781-0.86719-1.9219-1.9219-1.9219-1.0586 0-1.9219 0.84766-1.9219 1.9219v45.309c0 7.8281 6.8086 14.172 15.191 14.172h23.461c8.3672 0 15.191-6.3477 15.191-14.176v-45.305c0-1.0781-0.86328-1.9258-1.9219-1.9258z"></path><path d="m50 39.012c6.7891 0 11.539-6.3281 11.539-15.383 0-9.25-9.8281-18.348-10.25-18.73-0.73047-0.67188-1.8672-0.67188-2.5977 0-0.42188 0.38281-10.23 9.4805-10.23 18.73 0 9.0547 4.7305 15.383 11.539 15.383zm-2.8906-15.391h0.96094v-0.96094c0-1.0625 0.85938-1.9219 1.9219-1.9219s1.9219 0.85938 1.9219 1.9219v0.96094h0.96094c1.0625 0 1.9219 0.85938 1.9219 1.9219s-0.85938 1.9219-1.9219 1.9219h-0.96094v0.96094c0 1.0625-0.85937 1.9219-1.9219 1.9219s-1.9219-0.85938-1.9219-1.9219v-0.96094h-0.96094c-1.0625 0-1.9219-0.85938-1.9219-1.9219s0.85938-1.9219 1.9219-1.9219z"></path></g></svg>