<svg class="primary" height="100%" style="color:primary;fill:currentColor" version="1.1" viewbox="0 0 100 100" width="100%" xmlns="http://www.w3.org/2000/svg"><g><path d="m80.156 12.324c5.1562 7.5586 8.1797 16.375 8.7461 25.492 0.10156 1.6523-1.1523 3.0742-2.8086 3.1797-1.6133 0.11328-3.0742-1.1289-3.1797-2.8086-0.49609-8.0391-3.1641-15.812-7.7148-22.48-0.93359-1.3672-0.57812-3.2344 0.78906-4.168 1.3633-0.93359 3.2344-0.58594 4.168 0.78516z"></path><path d="m75.742 50.758c-0.42188 1.6055-2.0625 2.5664-3.6602 2.1445-1.6016-0.41797-2.5625-2.0586-2.1445-3.6602 3.5-13.355-1.7695-27.801-13.719-35.742-1.3789-0.91797-1.7539-2.7773-0.83984-4.1602 0.91406-1.3828 2.7812-1.7539 4.1602-0.83594 14.172 9.4219 20.324 26.523 16.203 42.254z"></path><path d="m36.211 14.059c-14.137 0.91406-25.211 13.109-25.211 27.762v31.535c0 9.5391 7.1328 17.691 16.242 18.562 10.566 0.99609 19.758-7.1992 19.758-18.043-0.027344-4.2383 1.7969-7.875 4.8828-9.7266 8.2148-4.9297 13.117-13.582 13.117-23.148 0-15.215-12.781-27.977-28.789-26.941zm-5.543 53.438c-1.375 0.91406-3.2344 0.55859-4.1602-0.82812-0.92187-1.3789-0.55078-3.2383 0.82422-4.1602 1.0273-0.69141 1.668-2.0312 1.668-3.5078s-0.64062-2.8203-1.668-3.5078c-1.3789-0.92188-1.7461-2.7852-0.82422-4.1602 0.92578-1.3789 2.7852-1.7461 4.1641-0.82422 2.7109 1.8125 4.3281 4.9883 4.3281 8.4922s-1.6211 6.6797-4.332 8.4961zm15.039-13.637c-1.418 0.85156-3.2617 0.39453-4.1172-1.0273-0.85156-1.4219-0.39453-3.2656 1.0273-4.1172 2.7461-1.6484 4.3828-4.5312 4.3828-7.7148 0-5.1719-4.4375-9.293-9.6289-8.9805-4.6133 0.29688-8.3711 4.6953-8.3711 9.8008 0 1.6562-1.3438 3-3 3s-3-1.3438-3-3c0-8.207 6.2734-15.289 13.984-15.789 8.5859-0.55859 16.016 6.3594 16.016 14.969 0 5.3086-2.7266 10.117-7.293 12.859z"></path></g></svg>