<svg class="currentColor" height="100%" style="color:currentColor;fill:currentColor" version="1.1" viewbox="0 0 100 100" width="100%" xmlns="http://www.w3.org/2000/svg"><g><path d="m60.984 22.219c-6.8594-9.6562-23.641-9.5312-37.484 0.29688-13.844 9.8125-19.5 25.625-12.641 35.281 4.25 6 12.312 8.2344 21.141 6.7031-1.2188-2.7812-1.8633-5.7773-1.9062-8.8125-4.125 0.61328-9.5352 0.28125-11.922-3.0781-0.49219-0.70312-0.32422-1.6719 0.375-2.1719 0.69922-0.49609 1.668-0.33594 2.1719 0.35938 1.2656 1.7812 5 2.5469 9.6406 1.6562 0.25781-1.5625 0.71484-3.0859 1.3594-4.5312 3.1562-7.0625 10.484-11.375 19.359-12.359 0.65234-1.5625 1.1914-4.7109 0.046875-6.3281-0.5-0.70312-0.33594-1.6797 0.36719-2.1797 0.70312-0.5 1.6797-0.33594 2.1797 0.36719 1.3828 2.418 1.6562 5.3164 0.75 7.9531 3.0273-0.058594 6.0547 0.23438 9.0156 0.875 1.1953-4.8125 0.30469-9.9102-2.4531-14.031z"></path><path d="m71.375 42.078c-15.473-6.8672-31.953-3.7734-36.812 7.1094-1.9258 4.7344-1.7266 10.066 0.54688 14.641 3.0781 6.9062 9.7812 13.453 18.812 17.469 15.5 6.9062 31.984 3.7188 36.797-7.1094 4.8281-10.828-3.8281-25.203-19.344-32.109zm11.152 28.461c-2.4609 5.5273-13.645 7.5898-24.957 2.5547-10.828-4.8203-17.363-14.5-14.801-20.254v-0.003906c0.35547-0.78125 1.2734-1.1289 2.0547-0.77734 0.78516 0.34766 1.1406 1.2617 0.79688 2.0469-1.5469 3.4727 3.2656 11.699 13.215 16.129 10.25 4.5625 19.332 2.4023 20.832-0.96875h0.003906c0.35547-0.77734 1.2734-1.125 2.0586-0.77734 0.78125 0.34766 1.1367 1.2617 0.79688 2.0508z"></path></g></svg>