<svg class="currentColor" height="100%" style="color:currentColor;fill:currentColor" version="1.1" viewbox="0 0 100 100" width="100%" xmlns="http://www.w3.org/2000/svg"><g><path d="m52.102 56.801c0.60156-0.69922 1.3008-1.5 2.1016-2.1992 0.69922-0.80078 1.5-1.5 2.1992-2.1016 1.5-1.3008 3.3008-2 5.1992-2 0.69922 0 1.5 0.10156 2.1992 0.30078 1.1016-3.1016 1.6992-6.5 1.6992-10v-20c0-1.1992-0.89844-2.1992-2.1016-2.3008-20.797-2.1016-26.797-14.199-27.098-14.699-0.39844-0.80078-1.1992-1.3008-2.1016-1.3008-0.89844 0-1.6992 0.5-2.1016 1.3008-0.19922 0.5-6.2969 12.598-27.098 14.699-1.1992 0.10156-2.1016 1.1016-2.1016 2.3008v20.102c0 24 29 39.199 30.301 39.801 0.30078 0.19922 0.69922 0.30078 1.1016 0.30078 0.30078 0 0.69922-0.10156 1-0.30078 0.5-0.19922 5.1016-2.6016 10.5-6.8984 0-0.69922 0.10156-1.3984 0.10156-2 0.19922-3 2.1016-5.6016 4.8008-6.8008 0 0 0-0.10156-0.10156-0.10156-0.90234-2.7031-0.40234-5.8008 1.5-8.1016zm-19-3c-0.80078 0.80078-1.8984 1.1992-3 1.1992-1.1016 0-2.1016-0.39844-3-1.1992l-8.1016-8.1016c-1.6016-1.6016-1.6016-4.3008 0-5.8984 1.6016-1.6016 4.3008-1.6016 5.8984 0l5.1016 5.1016 13.301-13.301c1.6016-1.6016 4.3008-1.6016 5.8984 0 1.6016 1.6016 1.6016 4.3008 0 5.8984z"></path><path d="m97 72.301c-0.10156-0.69922-0.5-1.3984-1.1992-1.6992-0.69922-0.30078-1.3984-0.19922-2 0.30078l-2 1.6016c-0.30078 0.30078-0.80078 0.39844-1.1992 0.39844h-1c-0.89844 0.10156-1.8008-0.60156-2-1.5-0.30078-1.1992-0.80078-2.3984-1.3984-3.3984-0.5-0.80078-0.30078-1.8984 0.39844-2.5l0.69922-0.69922c0.30078-0.30078 0.69922-0.5 1.1992-0.5l2.5-0.30469c0.69922-0.10156 1.3984-0.60156 1.6016-1.1992 0.30078-0.69922 0.10156-1.5-0.30078-2-0.60156-0.60156-1.1016-1.3008-1.8008-1.8984-0.60156-0.60156-1.3008-1.1992-1.8984-1.8008-0.60156-0.5-1.3008-0.60156-2-0.30078-0.69922 0.30078-1.1992 0.89844-1.1992 1.6016l-0.40234 2.4961c0 0.39844-0.19922 0.80078-0.5 1.1992l-0.69922 0.69922c-0.60156 0.69922-1.6992 0.89844-2.5 0.39844-1.1016-0.60156-2.1992-1.1016-3.3984-1.3984-0.89844-0.19922-1.5-1.1016-1.5-2v-1c0-0.39844 0.19922-0.89844 0.5-1.1992l1.6016-1.8984c0.5-0.60156 0.60156-1.3008 0.30078-2-0.30078-0.69922-0.89844-1.1016-1.6992-1.1992-1.6992-0.10156-3.5-0.10156-5.1992 0-0.69922 0.10156-1.3984 0.5-1.6992 1.1992s-0.19922 1.3984 0.30078 2l1.6016 2c0.30078 0.30078 0.39844 0.80078 0.39844 1.1992v1c0 0.89844-0.60156 1.8008-1.5 2-1.1992 0.30078-2.3984 0.80078-3.3984 1.3984-0.80078 0.5-1.8984 0.30078-2.5-0.39844l-0.71094-0.89844c-0.30078-0.30078-0.5-0.69922-0.5-1.1992l-0.30078-2.5c-0.10156-0.69922-0.60156-1.3008-1.1992-1.6016-0.69922-0.30078-1.5-0.10156-2 0.30078-0.60156 0.60156-1.3008 1.1016-1.8984 1.8008-0.60156 0.60156-1.1992 1.3008-1.8008 1.8984-0.5 0.60156-0.60156 1.3008-0.30078 2 0.30078 0.69922 0.89844 1.1992 1.6016 1.1992l2.5 0.30078c0.39844 0.10156 0.80078 0.19922 1.1992 0.5l0.69922 0.69922c0.69922 0.60156 0.89844 1.6992 0.39844 2.5-0.60156 1.1016-1.1016 2.1992-1.3984 3.3984-0.19922 0.89844-1 1.5-2 1.5h-1c-0.39844 0-0.89844-0.19922-1.1992-0.39844l-1.8984-1.6016c-0.60156-0.5-1.3008-0.60156-2-0.30078-0.69922 0.30078-1.1016 0.89844-1.1992 1.6992-0.10156 0.80078-0.10156 1.6992-0.10156 2.6016 0 0.89844 0 1.8008 0.10156 2.6016 0.10156 0.69922 0.5 1.3984 1.1992 1.6016 0.69922 0.30078 1.5 0.19922 2-0.30078l2-1.6016c0.30078-0.30078 0.80078-0.39844 1.1992-0.39844h1c1 0 1.8008 0.60156 2 1.5 0.30078 1.1992 0.80078 2.3984 1.3984 3.3984 0.5 0.80078 0.30078 1.8984-0.39844 2.5l-0.69922 0.69922c-0.30078 0.30078-0.69922 0.5-1.1992 0.5l-2.6016 0.40234c-0.69922 0.10156-1.3008 0.60156-1.6016 1.1992-0.30078 0.69922-0.10156 1.5 0.30078 2 0.60156 0.60156 1.1992 1.3008 1.8008 1.8984 0.60156 0.60156 1.3008 1.1992 1.8984 1.8008 0.60156 0.5 1.3008 0.60156 2 0.39844 0.69922-0.30078 1.1992-0.89844 1.1992-1.6016l0.30078-2.5c0-0.39844 0.19922-0.80078 0.5-1.1992l0.69922-0.69922c0.60156-0.69922 1.6992-0.89844 2.5-0.39844 1.1016 0.60156 2.1992 1.1016 3.3984 1.3984 0.89844 0.19922 1.5 1.1016 1.5 2v1c0 0.39844-0.19922 0.89844-0.5 1.1992l-1.6016 1.8984c-0.5 0.60156-0.60156 1.3008-0.30078 2s0.89844 1.1016 1.6992 1.1992c0.80078 0.10156 1.6992 0.10156 2.6016 0.10156 0.89844 0 1.6992 0 2.6016-0.10156 0.69922-0.10156 1.3984-0.5 1.6992-1.1992 0.30078-0.69922 0.19922-1.3984-0.30078-2l-1.6016-2c-0.30078-0.30078-0.39844-0.80078-0.39844-1.1992v-1c0-1 0.60156-1.8008 1.5-2 1.1992-0.30078 2.3984-0.80078 3.3984-1.3984 0.80078-0.5 1.8984-0.30078 2.5 0.39844l0.69922 0.69922c0.30078 0.30078 0.5 0.69922 0.5 1.1992l0.30078 2.5c0.10156 0.69922 0.60156 1.3984 1.1992 1.6016 0.69922 0.30078 1.5 0.10156 2-0.30078 0.60156-0.60156 1.3008-1.1992 1.8984-1.8008 0.60156-0.60156 1.1992-1.3008 1.8008-1.8984 0.5-0.60156 0.60156-1.3008 0.30078-2-0.30078-0.69922-0.89844-1.1992-1.6016-1.1992l-2.5-0.30078c-0.39844-0.10156-0.80078-0.19922-1.1992-0.5l-0.69922-0.69922c-0.69922-0.60156-0.89844-1.6992-0.39844-2.5 0.60156-1.1016 1.1016-2.1992 1.3984-3.3984 0.19922-0.89844 1-1.5 2-1.5h1c0.39844 0 0.89844 0.19922 1.1992 0.5l1.8984 1.6016c0.60156 0.5 1.3984 0.60156 2 0.30078 0.69922-0.30078 1.1016-0.89844 1.1992-1.6992 0.10156-0.80078 0.10156-1.6992 0.10156-2.6016 0.21094-0.89844 0.21094-1.7969 0.10938-2.5977z"></path></g></svg>