<svg class="currentColor" height="100%" style="color:currentColor;fill:currentColor" version="1.1" viewbox="0 0 100 100" width="100%" xmlns="http://www.w3.org/2000/svg"><g><path d="m91.5 52.199h-24.102c0.10156 0.60156 0.19922 1.3008 0.19922 1.8984 0.30078 3 0.5 4.8984 0.5 6.3008 0 10.102-8.1992 18.301-18.301 18.301-10 0-18.199-8.1992-18.199-18.301 0-1.6992 0.30078-4.5 0.89844-8.1992h-24c-3.3008 0-6 2.6992-6 6v30.5c0 3.3984 2.6992 6 6 6h83c3.3008 0 6-2.6992 6-6l0.003906-30.398c0-3.3008-2.6992-6.1016-6-6.1016z"></path><path d="m49.898 70.5c5.6016 0 10.102-4.5 10.102-10.102 0-4.8008-4.8008-32.301 0.80078-53.398 0.39844-1.6016-1.6992-2.5-2.6016-1.1992-14.199 22-18.398 49.699-18.398 54.598 0 5.6016 4.5 10.102 10.098 10.102z"></path></g></svg>