<svg class="currentColor" height="100%" style="color:currentColor;fill:currentColor" version="1.1" viewbox="0 0 100 100" width="100%" xmlns="http://www.w3.org/2000/svg"><path d="m42.535 59.758c-9.7109-8.4922-21.727-13.902-34.523-15.559-0.85156-0.10938-1.6328 0.49219-1.7539 1.3516 0 0.0625-0.007812 0.12891-0.007812 0.19531v25.398c0 0.44531 0.19531 0.87109 0.53125 1.168 10.828 9.6016 23.73 16.578 37.695 20.383 5.3086 1.4492 10.98-0.32031 14.523-4.5391 7.0977-8.4375 12.238-18.34 15.055-29 1.8867-7.1367 4.9922-13.898 9.1797-19.984l8.2109-11.922c4.0898-5.9336 2.5859-14.059-3.3438-18.148-5.9297-4.0859-14.055-2.5859-18.148 3.3438-1.5156 2.2148-2.3203 4.8398-2.2969 7.5234 0.023438 2.5703 1.0703 5.0234 2.8984 6.8242l-9.8086 11.102c-0.78125 0.87891-1.6641 1.6602-2.6367 2.3203-7.0547 4.7812-12.477 11.598-15.574 19.543z"></path></svg>