<svg class="currentColor" height="100%" style="color:currentColor;fill:currentColor" version="1.1" viewbox="0 0 100 100" width="100%" xmlns="http://www.w3.org/2000/svg"><path d="m91 42c-3.1016-0.60156-5.8984 0.5-7.6992 2.6016-1.5 1.6016-3.5 2.6992-5.6992 2.6992h-11.102c-1.6016 0-3-1-3.6016-2.3984l-0.10156-0.19922c-0.60156-1.5-0.30078-3.3008 0.89844-4.5l8-8c1.5-1.5 3.5-2.1016 5.6016-2 2.8008 0.19922 5.6016-1 7.3984-3.6016 1.8008-2.6992 1.8008-6.3008 0-9-3-4.3984-9-4.8008-12.602-1.3008-1.8008 1.8008-2.5 4.1992-2.3008 6.5 0.19922 2.1016-0.69922 4.1016-2.1992 5.6016l-7.8984 7.8984c-1.1016 1.1016-2.8008 1.5-4.3008 0.80078l-0.19922-0.10156c-1.5-0.60156-2.5-2.1016-2.5-3.8008v-11c0-2.1992 1-4.1992 2.6992-5.6992 2-1.8008 3.1992-4.6016 2.6016-7.6992-0.60156-3.1992-3.1992-5.6992-6.3008-6.3008-5.1992-1-9.8008 2.8984-9.8008 8 0 2.5 1.1016 4.6992 2.8984 6.1992 1.6016 1.3008 2.5 3.3984 2.5 5.5v11c0 1.6992-1 3.1992-2.5 3.8008h-0.10156c-1.5 0.60156-3.3008 0.30078-4.5-0.89844l-8-8c-1.5-1.5-2.1016-3.5-2-5.6016 0.19922-2.8008-1-5.6016-3.6016-7.3984-2.6992-1.8008-6.3008-1.8008-9 0-4.3984 3-4.8008 9-1.3008 12.602 1.8008 1.8008 4.1992 2.5 6.5 2.3008 2.1016-0.19922 4.1016 0.69922 5.6016 2.1992l7.8008 7.8008c1.1992 1.1992 1.5 3 0.89844 4.5v0.10156c-0.60156 1.5-2.1016 2.5-3.8008 2.5h-11c-2.1992 0-4.1992-1-5.6992-2.6992-1.8008-2-4.6016-3.1992-7.6992-2.6016-3.1992 0.60156-5.6992 3.1992-6.3008 6.3008-1 5.1992 2.8984 9.8008 8 9.8008 2.5 0 4.6992-1.1016 6.1992-2.8984 1.3008-1.6016 3.3984-2.5 5.5-2.5h11.102c1.6016 0 3 1 3.6016 2.3984l0.10156 0.30078c0.60156 1.5 0.30078 3.1016-0.80078 4.3008l-8.1016 8.1016c-1.5 1.5-3.5 2.1016-5.6016 2-2.8008-0.19922-5.6016 1-7.3984 3.6016-1.8008 2.6992-1.8008 6.3008 0 9 3 4.3984 9 4.8008 12.602 1.3008 1.8008-1.8008 2.5-4.1992 2.3008-6.5-0.19922-2.1016 0.69922-4.1016 2.1992-5.6016l7.8984-7.8984c1.1016-1.1016 2.8008-1.5 4.3008-0.80078l0.19922 0.10156c1.5 0.60156 2.5 2.1016 2.5 3.8008v11c0 2.1992-1 4.1992-2.6992 5.6992-2 1.8008-3.1992 4.6016-2.6016 7.6992 0.60156 3.1992 3.1992 5.6992 6.3008 6.3008 5.1992 1 9.8008-2.8984 9.8008-8 0-2.5-1.1016-4.6992-2.8984-6.1992-1.6016-1.3008-2.5-3.3984-2.5-5.5l0.007812-11.113c0-1.6016 1-3 2.3984-3.6016l0.19922-0.10156c1.5-0.60156 3.3008-0.30078 4.5 0.89844l8 8c1.5 1.5 2.1016 3.5 1.8984 5.6016-0.19922 2.8008 1 5.6016 3.6016 7.3984 2.6992 1.8008 6.3008 1.8008 9 0 4.3984-3 4.8008-9 1.3008-12.602-1.8008-1.8008-4.1992-2.5-6.5-2.3008-2.1016 0.19922-4.1016-0.69922-5.6016-2.1992l-7.8008-7.8008c-1.1992-1.1992-1.5-3-0.89844-4.5v-0.10156c0.60156-1.5 2.1016-2.5 3.8008-2.5h11c2.1016 0 4.1992 0.80078 5.5 2.5 1.5 1.8008 3.6992 2.8984 6.1992 2.8984 5 0 9-4.6016 8-9.8008-0.5-3.0898-3-5.6875-6.1992-6.2891z"></path></svg>