<svg class="currentColor" height="100%" style="color:currentColor;fill:currentColor" version="1.1" viewbox="0 0 100 100" width="100%" xmlns="http://www.w3.org/2000/svg"><g fill-rule="evenodd"><path d="m50 12.664c12.996 0 23.5 10.496 23.5 23.492 0 0.36719-0.007812 0.73438-0.027344 1.0977-2.2266-0.58203-4.5586-0.89453-6.9648-0.89453-6.1875 0-11.906 2.0586-16.508 5.5234-4.6016-3.4648-10.32-5.5234-16.516-5.5234-2.4023 0-4.7305 0.3125-6.9531 0.89062-0.015625-0.36328-0.027344-0.72656-0.027344-1.0938 0-12.996 10.492-23.492 23.488-23.492z"></path><path d="m33.488 40.355c5.0078 0 9.6406 1.5547 13.445 4.2109-3.4297 3.4805-5.9375 7.8672-7.1328 12.766-6.3984-3.0781-11.176-8.9727-12.742-16.09 2.043-0.57813 4.1992-0.88672 6.4297-0.88672z"></path><path d="m66.512 40.355c2.2344 0 4.3906 0.30859 6.4375 0.89062-1.5664 7.1094-6.3438 13-12.742 16.082-1.1953-4.8945-3.7031-9.2812-7.1328-12.762 3.8047-2.6523 8.4375-4.2109 13.438-4.2109z"></path><path d="m23.293 42.668c2.0586 8.4297 8.0117 15.348 15.84 18.73-0.070312 0.80469-0.10937 1.6211-0.10937 2.4453 0 7.5039 3.0234 14.316 7.9141 19.281-3.8047 2.6523-8.4414 4.2109-13.445 4.2109-12.996 0-23.488-10.492-23.488-23.492 0-9.3398 5.418-17.387 13.293-21.176z"></path><path d="m76.715 42.672c7.8672 3.7891 13.285 11.836 13.285 21.172 0 12.996-10.492 23.492-23.488 23.492-5.0039 0-9.6328-1.5547-13.438-4.2109 4.8945-4.9648 7.918-11.777 7.918-19.281 0-0.82422-0.039063-1.6406-0.10938-2.4492 7.8242-3.3828 13.777-10.297 15.836-18.723z"></path><path d="m50.004 47.117c3.1641 3.1211 5.4414 7.1328 6.4336 11.637-2.0469 0.57812-4.2031 0.89062-6.4375 0.89062-2.2305 0-4.3867-0.30859-6.4297-0.88672 0.99219-4.5039 3.2695-8.5195 6.4336-11.641z"></path><path d="m56.965 62.75c0.015625 0.36328 0.027344 0.73047 0.027344 1.0977 0 6.5547-2.6719 12.473-6.9844 16.73-4.3125-4.2578-6.9844-10.176-6.9844-16.73 0-0.36719 0.007812-0.73047 0.027343-1.0938 2.2227 0.58203 4.5508 0.89062 6.9531 0.89062 2.4062 0 4.7383-0.3125 6.9648-0.89453z"></path></g></svg>