<svg class="currentColor" height="100%" style="color:currentColor;fill:currentColor" version="1.1" viewbox="0 0 100 100" width="100%" xmlns="http://www.w3.org/2000/svg"><g><path d="m41.102 46.102c-1.3984-1.1992-2.8984-2.1992-4.6016-3 0.10156-1.3008 0.10156-2.5-0.30078-3.8008 7-2.1016 11.199-9.3984 9.3984-16.602-0.89844-3.6016-3.1016-6.6016-6.3008-8.3984-3.1992-1.8984-6.8984-2.3984-10.398-1.5-10.699 2.6992-19.098 9.3008-23.398 18.598-4.3008 9.3008-4 19.898 1 30 1.6016 3.1992 4.3008 5.6016 7.6016 6.8984 1.6016 0.60156 3.1992 0.80078 4.8008 0.80078 2.1016 0 4.1016-0.5 6-1.3984 6.3984-3.1016 9.3008-10.5 6.8984-17.102 0.80078-0.5 1.6016-1.1992 2.1992-1.8984 1.1016 0.60156 2.1016 1.1992 3 2 2.6992 2.3984 4 5.6016 4 10v23.801c0 1.6992 1.3984 3.1016 3.1016 3.1016 1.6992 0 3.1016-1.3984 3.1016-3.1016l-0.003906-23.801c0-6.0977-2-11-6.0977-14.598zm-9.1016-21.402c-5.1016 1.3008-9.3984 3.8008-12.398 7.3008-0.60156 0.60156-1.3008 1-2.1016 1-0.69922 0-1.3008-0.19922-1.8008-0.69922-1.1992-1-1.3008-2.8008-0.30078-3.8984 3.8008-4.3984 9-7.5 15.301-9.1016 1.5-0.39844 3 0.5 3.3984 2 0.30078 1.5-0.59766 3.0977-2.0977 3.3984z"></path><path d="m94.5 31.398c-4.3008-9.2969-12.602-15.898-23.5-18.598-3.6016-0.89844-7.3008-0.39844-10.398 1.5-3.1016 1.8984-5.3984 4.8984-6.3008 8.3984-1.8008 7.1992 2.3984 14.5 9.3984 16.602-0.30078 1.1992-0.39844 2.5-0.30078 3.8008-1.6016 0.80078-3.1992 1.8008-4.6016 3-4.1016 3.6016-6.1016 8.5-6.1016 14.602v23.801c0 1.6992 1.3984 3.1016 3.1016 3.1016 1.6992 0 3.1016-1.3984 3.1016-3.1016v-23.805c0-4.3008 1.3008-7.6016 4-9.8984 0.89844-0.80078 1.8984-1.5 3-2 0.69922 0.69922 1.3984 1.3984 2.1992 1.8984-2.3984 6.6016 0.5 13.898 6.8984 17.102 1.8984 0.89844 4 1.3984 6 1.3984 1.6016 0 3.1992-0.30078 4.8008-0.80078 3.3008-1.1992 6-3.6992 7.6016-6.8984 5.1016-10.199 5.4023-20.801 1.1016-30.102zm-10.199 0.90234c-0.5 0.5-1.1992 0.69922-1.8008 0.69922-0.80078 0-1.6016-0.30078-2.1016-1-3-3.5-7.3008-6-12.398-7.3008-1.5-0.39844-2.3984-1.8984-2-3.3984s1.8984-2.3984 3.3984-2c6.1992 1.6016 11.5 4.6992 15.199 9.1016 1.0039 1.1992 0.90234 2.8984-0.29688 3.8984z"></path></g></svg>