<svg class="currentColor" height="100%" style="color:currentColor;fill:currentColor" version="1.1" viewbox="0 0 100 100" width="100%" xmlns="http://www.w3.org/2000/svg"><g><path d="m74.199 40.117c0-9.1836-7.4844-16.668-16.668-16.668s-16.668 7.4844-16.668 16.668c0 9.1836 7.4844 16.668 16.668 16.668s16.668-7.4688 16.668-16.668zm-21.898-5c0-2.8008 2.9336-5 6.668-5s6.668 2.1992 6.668 5c0 2.8008-2.9336 5-6.668 5s-6.668-2.1992-6.668-5z"></path><path d="m35.883 20.082c-0.015624 0.035157-0.035156 0.066407-0.035156 0.11719-0.35156 0.86719-0.98438 1.582-1.7852 2.0664-2.3008 1.3516-3.6992 3.75-3.75 6.4648 0 0.94922-0.33203 1.8828-0.83203 2.5-0.035157 0.035156-0.10156 0.10156-0.13281 0.13281-1.1172 1.3516-1.7148 3.0508-1.7148 4.8008 0 0.86719 0.14844 1.7148 0.44922 2.5664 0.14844 0.39844 0.21484 0.88281 0.21484 1.3828s-0.066406 0.98438-0.23438 1.3984c-0.88281 2.5-0.39844 5.3164 1.3008 7.3672 0.61719 0.73438 0.94922 1.668 0.94922 2.6484 0.015625 1.8008 0.71484 3.5156 1.8828 4.8672 0.066407-0.066406 0.11719-0.14844 0.18359-0.21484 2.0508-2.0352 5.1172-3.668 8.2344-4.418 0.19922-0.050781 0.41797-0.066407 0.61719-0.10156-2.3164-3.2656-3.6992-7.25-3.6992-11.551 0-11.035 8.9844-20 20-20 11.035 0 20 8.9648 20 20s-8.9648 20-20 20c-1.332 0-2.6484-0.13281-3.9336-0.39844 0.050782 0.43359 0.11719 0.86719 0.11719 1.3164 0 2.5664-0.76562 5.3672-2.0508 7.8164 0.75-0.015625 1.4844 0.16797 2.1328 0.53516 0.050781 0.035156 0.10156 0.050782 0.14844 0.082032 1.1172 0.60156 2.3516 0.91797 3.582 0.91797 1.3008 0 2.6016-0.35156 3.7148-1 0.86719-0.46484 1.832-0.63281 2.832-0.48438 2.6172 0.39844 5.2656-0.55078 6.9648-2.5508 0.63281-0.75 1.5-1.25 2.4336-1.4336 2.582-0.46484 4.7852-2.2852 5.7148-4.7656 0.015625-0.035156 0.035156-0.066406 0.035156-0.11719 0.35156-0.86719 0.98438-1.582 1.7852-2.0664 2.3008-1.3516 3.6992-3.75 3.7344-6.4648 0-0.94922 0.35156-1.8828 0.85156-2.5 0.035156-0.035156 0.10156-0.10156 0.13281-0.13281 1.1172-1.3516 1.7344-3.0508 1.7344-4.8008 0-0.86719-0.16797-1.7148-0.46484-2.5664-0.14844-0.41797-0.23438-0.88281-0.23438-1.3828s0.082031-0.96484 0.25-1.3984c0.88281-2.5 0.39844-5.3164-1.3008-7.3672-0.61719-0.73438-0.96484-1.668-0.96484-2.6484-0.015625-2.6172-1.4492-5.082-3.7344-6.4336-0.80078-0.48438-1.4336-1.1992-1.7656-2.0664-0.015625-0.035157-0.035156-0.066407-0.050782-0.11719-0.91797-2.4648-3.1016-4.3008-5.6992-4.7656-0.015625-0.015625-0.050782-0.015625-0.066406-0.015625-0.92969-0.18359-1.7617-0.68359-2.3633-1.4023-0.050781-0.066407-0.10156-0.11719-0.16797-0.16797-1.6992-1.8984-4.1484-2.8008-6.8516-2.3984-0.96484 0.16797-1.9336-0.015625-2.7656-0.48438-0.050781-0.035156-0.10156-0.050781-0.14844-0.066406-2.2656-1.25-5.1016-1.1992-7.3008 0.066406-0.86719 0.46484-1.8008 0.64844-2.832 0.48438-2.6328-0.38281-5.2656 0.55078-6.9492 2.5508-0.64844 0.75-1.5156 1.25-2.4492 1.4336-2.5859 0.46875-4.7852 2.2852-5.7188 4.7656z"></path><path d="m24.602 79.168c0 3.082-2.1836 5.7852-5.1836 6.4492l-5.5664 1.2148c-0.89844 0.19922-1.4648 1.082-1.2656 1.9844 0.16797 0.78516 0.86719 1.3164 1.6328 1.3164 0.11719 0 0.23438-0.015624 0.35156-0.035156l5.5664-1.2148c4.5156-0.98437 7.8164-5.0664 7.8164-9.6992 0-2.5352 1.3984-4.8008 3.668-5.918l3.918-1.9336c1.4336 1.0508 3.1172 1.6016 4.832 1.6016 2.2148 0 4.4648-0.86719 6.168-2.582 3.25-3.2344 5.582-10.516 2.168-13.934-1.6016-1.6172-4.1992-2.1016-7.3164-1.3672-2.5156 0.60156-5.0508 1.9492-6.6328 3.5156-2.7852 2.8008-3.2852 6.9844-1.5 10.184l-3.1172 1.5352c-3.4258 1.6641-5.5391 5.0664-5.5391 8.8828z"></path></g></svg>