<svg class="currentColor" height="100%" style="color:currentColor;fill:currentColor" version="1.1" viewbox="0 0 100 100" width="100%" xmlns="http://www.w3.org/2000/svg"><path d="m77.383 45.301h-23.355l0.26953-6.6016h21.727c1.1523 0 2.0625-0.96875 2.0625-2.1016 0-1.1406-0.93359-2.1016-2.0625-2.1016l-21.555 0.003906 0.26953-6.3984h16.688c1.1523 0 2.0625-0.92578 2.0625-2.043 0-1.1328-0.93359-2.0586-2.0625-2.0586h-16.516l0.13281-3.2422c0.007812-0.12891 0.015625-0.28125 0.015625-0.41016 0-2.8047-2.2734-5.0781-5.0781-5.0781-2.8047 0-5.0781 2.2812-5.0781 5.0859 0 0.12891 0.007812 0.28125 0.015625 0.41016l0.13281 3.2344h-16.52c-1.1562 0-2.0703 0.90625-2.0703 2.0547 0 1.1172 0.93359 2.043 2.0703 2.043h16.691l0.26953 6.3984-21.496 0.003906c-1.1328 0-2.0703 0.91406-2.0703 2.0508 0 1.1523 0.9375 2.0508 2.0703 2.0508h21.668l0.26953 6.6016-23.316-0.003906c-1.1523 0-2.0664 0.91797-2.0664 2.0469 0 1.1562 0.93359 2.0508 2.0664 2.0508h23.488l0.26953 6.5-21.262 0.003906c-1.1602 0-2.0703 0.91016-2.0703 2.0391 0 1.1562 0.91016 2.0586 2.0703 2.0586h21.438l0.26953 6.5h-21.02c-0.80469 0-1.957 0.75781-1.957 1.9766 0 11.09 1.0703 16.379 6.9141 16.379 6.293 0 7.375-13.555 14.145-13.953h2.0938l0.47656 11.461c0 1.3867 1.1211 2.4844 2.5078 2.4844 1.3828 0 2.5078-1.0977 2.5078-2.4805l0.47656-11.465h2.1133c6.4258 0.80078 7.6719 13.957 13.746 13.957 5.8203 0 7.2188-5.2656 7.2188-16.355 0-1.2227-1.1523-2-1.9531-2l-20.945-0.003906 0.26953-6.4766 21.434 0.042969c1.1289 0 2.0703-0.95703 2.0703-2.0977 0-1.1328-0.94141-2.0703-2.0703-2.0703l-21.266 0.003906 0.26953-6.5h23.527c1.1289 0 2.0664-0.86719 2.0664-2.0039 0.003907-1.1328-0.93359-1.9961-2.0625-1.9961z"></path></svg>