<svg class="currentColor" height="100%" style="color:currentColor;fill:currentColor" version="1.1" viewbox="0 0 100 100" width="100%" xmlns="http://www.w3.org/2000/svg"><g><path d="m85.93 43.641c-0.44141-0.39453-4.4805-3.9375-10.758-7.3594-8.4102-4.582-16.879-6.9062-25.172-6.9062s-16.762 2.3242-25.172 6.9062c-6.2812 3.4219-10.32 6.9688-10.758 7.3594-1.8086 1.6172-2.8477 3.9336-2.8477 6.3594s1.0352 4.7422 2.8438 6.3594c0.44141 0.39453 4.4805 3.9414 10.758 7.3594 8.4102 4.582 16.879 6.9062 25.172 6.9062 8.293 0 16.762-2.3242 25.172-6.9062 6.2812-3.4219 10.32-6.9688 10.758-7.3594 1.8086-1.6133 2.8477-3.9336 2.8477-6.3594 0.003906-2.4258-1.0352-4.7422-2.8438-6.3594zm-55.5 12.883c0.25391 0.76172 0.55078 1.5039 0.89062 2.2266-7.3359-3.457-12.113-7.6875-12.344-7.8906-0.24609-0.21875-0.38672-0.53125-0.38672-0.85938s0.14062-0.64062 0.38672-0.85938c0.23047-0.20312 5.0078-4.4336 12.344-7.8906-0.33984 0.72266-0.63672 1.4648-0.89062 2.2266-0.70313 2.0977-1.0586 4.293-1.0586 6.5234 0.003906 2.2305 0.35938 4.4258 1.0586 6.5234zm19.57 6.7305c-7.3086 0-13.254-5.9453-13.254-13.254s5.9453-13.254 13.254-13.254 13.254 5.9453 13.254 13.254-5.9453 13.254-13.254 13.254zm31.02-12.395c-0.23047 0.20312-5.0078 4.4336-12.344 7.8906 0.33984-0.72266 0.63672-1.4648 0.89062-2.2266 0.70312-2.0977 1.0586-4.293 1.0586-6.5234s-0.35547-4.4258-1.0586-6.5234c-0.25391-0.76172-0.55078-1.5039-0.89062-2.2266 7.332 3.457 12.113 7.6875 12.344 7.8906 0.24609 0.21875 0.38672 0.53125 0.38672 0.85938-0.003906 0.32812-0.14062 0.64062-0.38672 0.85938z"></path><path d="m50 75.355c-2.0391 0-3.6992 1.6523-3.6992 3.6875v13.309c0 2.0312 1.6602 3.6875 3.6992 3.6875s3.6992-1.6523 3.6992-3.6875v-13.312c0-2.0312-1.6602-3.6836-3.6992-3.6836z"></path><path d="m50 24.645c2.0391 0 3.6992-1.6523 3.6992-3.6875v-13.309c0-2.0312-1.6602-3.6875-3.6992-3.6875s-3.6992 1.6523-3.6992 3.6875v13.309c0 2.0352 1.6602 3.6875 3.6992 3.6875z"></path><path d="m76.387 71.172c-0.69531-0.69531-1.6211-1.0781-2.6055-1.0781s-1.9102 0.38281-2.6055 1.0781c-0.69531 0.69531-1.0781 1.6211-1.0781 2.6055s0.38281 1.9102 1.0781 2.6055l7.875 7.875c0.69531 0.69531 1.6211 1.0781 2.6055 1.0781s1.9102-0.38281 2.6055-1.0781c0.69531-0.69531 1.0781-1.6211 1.0781-2.6055s-0.38281-1.9102-1.0781-2.6055z"></path><path d="m23.613 28.824c0.69531 0.69531 1.6211 1.0781 2.6055 1.0781s1.9102-0.38281 2.6055-1.0781c0.69531-0.69531 1.0781-1.6211 1.0781-2.6055s-0.38281-1.9102-1.0781-2.6055l-7.875-7.8789c-0.69531-0.69531-1.6211-1.0781-2.6055-1.0781s-1.9102 0.38281-2.6055 1.0781c-1.4375 1.4375-1.4375 3.7773 0 5.2148z"></path><path d="m26.219 70.094c-0.98438 0-1.9102 0.38281-2.6055 1.0781l-7.8789 7.8789c-1.4375 1.4375-1.4375 3.7773 0 5.2148 0.69531 0.69531 1.6211 1.0781 2.6055 1.0781s1.9102-0.38281 2.6055-1.0781l7.8789-7.8789c1.4375-1.4375 1.4375-3.7773 0-5.2148-0.69531-0.69531-1.6211-1.0781-2.6055-1.0781z"></path><path d="m73.781 29.906c0.98438 0 1.9102-0.38281 2.6055-1.0781l7.8789-7.8789c0.69531-0.69531 1.0781-1.6211 1.0781-2.6055s-0.38281-1.9102-1.0781-2.6055c-0.69531-0.69531-1.6211-1.0781-2.6055-1.0781s-1.9102 0.38281-2.6055 1.0781l-7.8789 7.8789c-1.4375 1.4375-1.4375 3.7773 0 5.2148 0.69141 0.69141 1.6172 1.0742 2.6055 1.0742z"></path><path d="m50 41.473c-4.7031 0-8.5273 3.8242-8.5273 8.5273s3.8242 8.5273 8.5273 8.5273 8.5273-3.8242 8.5273-8.5273-3.8242-8.5273-8.5273-8.5273z"></path></g></svg>